<?xml version="1.0" encoding="UTF-8" standalone="no"?>
<!DOCTYPE svg PUBLIC "-//W3C//DTD SVG 1.1//EN"
 "http://www.w3.org/Graphics/SVG/1.1/DTD/svg11.dtd">
<!-- Generated by graphviz version 2.40.1 (20161225.0304)
 -->
<!-- Title: finite_state_machine Pages: 1 -->
<svg width="855pt" height="720pt"
 viewBox="0.00 0.00 855.21 720.00" xmlns="http://www.w3.org/2000/svg" xmlns:xlink="http://www.w3.org/1999/xlink">
<g id="graph0" class="graph" transform="scale(.3387 .3387) rotate(0) translate(4 2121.5)">
<title>finite_state_machine</title>
<polygon fill="#ffffff" stroke="transparent" points="-4,4 -4,-2121.5 2520.6482,-2121.5 2520.6482,4 -4,4"/>
<!-- S0 -->
<g id="node1" class="node">
<title>S0</title>
<ellipse fill="none" stroke="#000000" cx="84.5" cy="-1171" rx="20.2726" ry="20.2726"/>
<ellipse fill="none" stroke="#000000" cx="84.5" cy="-1171" rx="24.2973" ry="24.2973"/>
<text text-anchor="middle" x="84.5" y="-1167.3" font-family="Times,serif" font-size="14.00" fill="#000000">S0</text>
</g>
<!-- S0&#45;&gt;S0 -->
<g id="edge5" class="edge">
<title>S0&#45;&gt;S0</title>
<path fill="none" stroke="#000000" d="M72.1982,-1192.2529C70.3057,-1203.2423 74.4063,-1213.1482 84.5,-1213.1482 91.2817,-1213.1482 95.3581,-1208.6765 96.729,-1202.4089"/>
<polygon fill="#000000" stroke="#000000" points="100.2299,-1202.2778 96.8018,-1192.2529 93.2301,-1202.2275 100.2299,-1202.2778"/>
<text text-anchor="middle" x="84.5" y="-1231.9482" font-family="Times,serif" font-size="14.00" fill="#000000">+ &amp; | &#45; * % = ! ^ /= ~ </text>
<text text-anchor="middle" x="84.5" y="-1216.9482" font-family="Times,serif" font-size="14.00" fill="#000000">? , ; ( ) [ ] { } &lt;空格&gt; \t \r \n :</text>
</g>
<!-- e1 -->
<g id="node2" class="node">
<title>e1</title>
<polygon fill="none" stroke="#000000" points="198.6482,-2071 198.6482,-2117 305.6482,-2117 305.6482,-2071 198.6482,-2071"/>
<text text-anchor="middle" x="252.1482" y="-2101.8" font-family="Times,serif" font-size="14.00" fill="#000000">E1</text>
<polyline fill="none" stroke="#000000" points="198.6482,-2094 305.6482,-2094 "/>
<text text-anchor="middle" x="252.1482" y="-2078.8" font-family="Times,serif" font-size="14.00" fill="#000000">stray in program</text>
</g>
<!-- S0&#45;&gt;e1 -->
<g id="edge11" class="edge">
<title>S0&#45;&gt;e1:f</title>
<path fill="none" stroke="#000000" d="M85.0121,-1195.2398C87.9771,-1331.6251 103.6161,-1998.5354 126.6482,-2035 141.196,-2058.0322 160.9324,-2045.2007 180.6482,-2064 188.6734,-2071.6521 187.5253,-2079.751 191.1135,-2086.5463"/>
<polygon fill="#000000" stroke="#000000" points="188.8054,-2089.1892 198.3348,-2093.8197 193.773,-2084.2573 188.8054,-2089.1892"/>
<text text-anchor="middle" x="153.6482" y="-2067.8" font-family="Times,serif" font-size="14.00" fill="#000000">OTHERS</text>
</g>
<!-- S1 -->
<g id="node11" class="node">
<title>S1</title>
<ellipse fill="none" stroke="#000000" cx="252.1482" cy="-1999" rx="20.2975" ry="20.2975"/>
<text text-anchor="middle" x="252.1482" y="-1995.3" font-family="Times,serif" font-size="14.00" fill="#000000">S1</text>
</g>
<!-- S0&#45;&gt;S1 -->
<g id="edge1" class="edge">
<title>S0&#45;&gt;S1</title>
<path fill="none" stroke="#000000" d="M85.0116,-1195.3551C87.8373,-1325.1921 102.2973,-1931.1794 126.6482,-1962 132.7203,-1969.6853 187.5763,-1983.8097 222.7257,-1992.2083"/>
<polygon fill="#000000" stroke="#000000" points="221.956,-1995.6227 232.4929,-1994.5164 223.5658,-1988.8103 221.956,-1995.6227"/>
<text text-anchor="middle" x="153.6482" y="-1983.8" font-family="Times,serif" font-size="14.00" fill="#000000">_ a&#45;z A&#45;Z</text>
</g>
<!-- S2 -->
<g id="node12" class="node">
<title>S2</title>
<ellipse fill="none" stroke="#000000" cx="252.1482" cy="-1298" rx="20.2975" ry="20.2975"/>
<text text-anchor="middle" x="252.1482" y="-1294.3" font-family="Times,serif" font-size="14.00" fill="#000000">S2</text>
</g>
<!-- S0&#45;&gt;S2 -->
<g id="edge2" class="edge">
<title>S0&#45;&gt;S2</title>
<path fill="none" stroke="#000000" d="M86.7302,-1195.3414C90.4516,-1220.8905 100.354,-1260.1785 126.6482,-1281 153.4306,-1302.2081 193.933,-1303.9347 221.6353,-1302.0153"/>
<polygon fill="#000000" stroke="#000000" points="222.2799,-1305.4717 231.9285,-1301.0952 221.6566,-1298.4995 222.2799,-1305.4717"/>
<text text-anchor="middle" x="153.6482" y="-1304.8" font-family="Times,serif" font-size="14.00" fill="#000000">0</text>
</g>
<!-- S11 -->
<g id="node13" class="node">
<title>S11</title>
<ellipse fill="none" stroke="#000000" cx="531.1482" cy="-960" rx="24.8972" ry="24.8972"/>
<text text-anchor="middle" x="531.1482" y="-956.3" font-family="Times,serif" font-size="14.00" fill="#000000">S11</text>
</g>
<!-- S0&#45;&gt;S11 -->
<g id="edge3" class="edge">
<title>S0&#45;&gt;S11</title>
<path fill="none" stroke="#000000" d="M87.66,-1146.8265C92.1116,-1122.7527 102.5761,-1086.5106 126.6482,-1066 227.9229,-979.7089 290.8504,-1037.0193 418.6482,-1000 445.9288,-992.0976 476.2338,-981.1959 498.511,-972.7692"/>
<polygon fill="#000000" stroke="#000000" points="500.0486,-975.9286 508.1419,-969.0912 497.5512,-969.3892 500.0486,-975.9286"/>
<text text-anchor="middle" x="252.1482" y="-1026.8" font-family="Times,serif" font-size="14.00" fill="#000000">1&#45;9</text>
</g>
<!-- S16 -->
<g id="node14" class="node">
<title>S16</title>
<ellipse fill="none" stroke="#000000" cx="252.1482" cy="-1133" rx="24.8972" ry="24.8972"/>
<text text-anchor="middle" x="252.1482" y="-1129.3" font-family="Times,serif" font-size="14.00" fill="#000000">S16</text>
</g>
<!-- S0&#45;&gt;S16 -->
<g id="edge4" class="edge">
<title>S0&#45;&gt;S16</title>
<path fill="none" stroke="#000000" d="M107.5245,-1162.7438C113.6881,-1160.7012 120.3805,-1158.6326 126.6482,-1157 157.0244,-1149.0874 192.164,-1142.5894 217.5202,-1138.3597"/>
<polygon fill="#000000" stroke="#000000" points="218.1017,-1141.8112 227.4056,-1136.7429 216.9717,-1134.903 218.1017,-1141.8112"/>
<text text-anchor="middle" x="153.6482" y="-1160.8" font-family="Times,serif" font-size="14.00" fill="#000000">.</text>
</g>
<!-- S17 -->
<g id="node15" class="node">
<title>S17</title>
<ellipse fill="none" stroke="#000000" cx="252.1482" cy="-800" rx="24.8972" ry="24.8972"/>
<text text-anchor="middle" x="252.1482" y="-796.3" font-family="Times,serif" font-size="14.00" fill="#000000">S17</text>
</g>
<!-- S0&#45;&gt;S17 -->
<g id="edge6" class="edge">
<title>S0&#45;&gt;S17</title>
<path fill="none" stroke="#000000" d="M85.6454,-1146.6902C89.4869,-1070.0999 103.0181,-837.4788 126.6482,-814 150.1254,-790.6731 189.5549,-789.9892 217.9589,-793.3552"/>
<polygon fill="#000000" stroke="#000000" points="217.4859,-796.823 227.8747,-794.7441 218.4569,-789.8907 217.4859,-796.823"/>
<text text-anchor="middle" x="153.6482" y="-817.8" font-family="Times,serif" font-size="14.00" fill="#000000">//</text>
</g>
<!-- S18 -->
<g id="node16" class="node">
<title>S18</title>
<ellipse fill="none" stroke="#000000" cx="252.1482" cy="-700" rx="24.8972" ry="24.8972"/>
<text text-anchor="middle" x="252.1482" y="-696.3" font-family="Times,serif" font-size="14.00" fill="#000000">S18</text>
</g>
<!-- S0&#45;&gt;S18 -->
<g id="edge7" class="edge">
<title>S0&#45;&gt;S18</title>
<path fill="none" stroke="#000000" d="M85.803,-1146.6273C90.3423,-1064.973 106.2985,-804.42 126.6482,-773 147.8226,-740.3068 189.1631,-720.4837 218.6083,-709.9056"/>
<polygon fill="#000000" stroke="#000000" points="219.7592,-713.2111 228.0917,-706.6674 217.4971,-706.5866 219.7592,-713.2111"/>
<text text-anchor="middle" x="153.6482" y="-776.8" font-family="Times,serif" font-size="14.00" fill="#000000">/*</text>
</g>
<!-- S20 -->
<g id="node17" class="node">
<title>S20</title>
<ellipse fill="none" stroke="#000000" cx="252.1482" cy="-581" rx="24.8972" ry="24.8972"/>
<text text-anchor="middle" x="252.1482" y="-577.3" font-family="Times,serif" font-size="14.00" fill="#000000">S20</text>
</g>
<!-- S0&#45;&gt;S20 -->
<g id="edge8" class="edge">
<title>S0&#45;&gt;S20</title>
<path fill="none" stroke="#000000" d="M85.3025,-1146.686C89.0296,-1037.2484 105.3748,-594.8221 126.6482,-575 151.2025,-552.1208 191.5746,-558.9103 219.8817,-567.9703"/>
<polygon fill="#000000" stroke="#000000" points="218.7507,-571.2825 229.3454,-571.2247 221.0271,-564.6629 218.7507,-571.2825"/>
<text text-anchor="middle" x="153.6482" y="-578.8" font-family="Times,serif" font-size="14.00" fill="#000000">&gt; &lt;</text>
</g>
<!-- S22 -->
<g id="node18" class="node">
<title>S22</title>
<ellipse fill="none" stroke="#000000" cx="252.1482" cy="-185" rx="24.8972" ry="24.8972"/>
<text text-anchor="middle" x="252.1482" y="-181.3" font-family="Times,serif" font-size="14.00" fill="#000000">S22</text>
</g>
<!-- S0&#45;&gt;S22 -->
<g id="edge9" class="edge">
<title>S0&#45;&gt;S22</title>
<path fill="none" stroke="#000000" d="M84.9313,-1146.5622C87.5258,-1004.3961 101.7877,-288.8439 126.6482,-250 146.9992,-218.2022 188.2204,-201.1471 217.8743,-192.5995"/>
<polygon fill="#000000" stroke="#000000" points="219.0808,-195.8994 227.8276,-189.9207 217.2616,-189.1399 219.0808,-195.8994"/>
<text text-anchor="middle" x="153.6482" y="-253.8" font-family="Times,serif" font-size="14.00" fill="#000000">&#39;</text>
</g>
<!-- S27 -->
<g id="node19" class="node">
<title>S27</title>
<ellipse fill="none" stroke="#000000" cx="252.1482" cy="-442" rx="24.8972" ry="24.8972"/>
<text text-anchor="middle" x="252.1482" y="-438.3" font-family="Times,serif" font-size="14.00" fill="#000000">S27</text>
</g>
<!-- S0&#45;&gt;S27 -->
<g id="edge10" class="edge">
<title>S0&#45;&gt;S27</title>
<path fill="none" stroke="#000000" d="M85.0701,-1146.5759C88.0355,-1024.2083 102.4922,-482.6505 126.6482,-457 149.4256,-432.8134 189.1592,-431.9893 217.8248,-435.3534"/>
<polygon fill="#000000" stroke="#000000" points="217.446,-438.8344 227.8331,-436.7468 218.4113,-431.9012 217.446,-438.8344"/>
<text text-anchor="middle" x="153.6482" y="-460.8" font-family="Times,serif" font-size="14.00" fill="#000000">&quot;</text>
</g>
<!-- e1&#45;&gt;S0 -->
<g id="edge12" class="edge">
<title>e1:f&#45;&gt;S0</title>
<path fill="none" stroke="#000000" d="M198.6256,-2102.7431C172.8516,-2103.6625 143.8724,-2099.2064 126.6482,-2079 97.8146,-2045.1741 87.0858,-1367.471 84.9285,-1205.5343"/>
<polygon fill="#000000" stroke="#000000" points="88.424,-1205.1561 84.7933,-1195.2028 81.4246,-1205.2478 88.424,-1205.1561"/>
</g>
<!-- e2 -->
<g id="node3" class="node">
<title>e2</title>
<polygon fill="none" stroke="#000000" points="771.1482,-1366 771.1482,-1412 854.1482,-1412 854.1482,-1366 771.1482,-1366"/>
<text text-anchor="middle" x="812.6482" y="-1396.8" font-family="Times,serif" font-size="14.00" fill="#000000">E2</text>
<polyline fill="none" stroke="#000000" points="771.1482,-1389 854.1482,-1389 "/>
<text text-anchor="middle" x="812.6482" y="-1373.8" font-family="Times,serif" font-size="14.00" fill="#000000">invalid num</text>
</g>
<!-- e2&#45;&gt;S0 -->
<g id="edge24" class="edge">
<title>e2:f&#45;&gt;S0</title>
<path fill="none" stroke="#000000" d="M770.7698,-1391.2502C629.4239,-1398.4422 176.0435,-1418.0841 126.6482,-1377 100.7853,-1355.4887 90.3159,-1258.1804 86.4803,-1205.3619"/>
<polygon fill="#000000" stroke="#000000" points="89.954,-1204.8558 85.7792,-1195.1182 82.9703,-1205.3339 89.954,-1204.8558"/>
</g>
<!-- e3 -->
<g id="node4" class="node">
<title>e3</title>
<polygon fill="none" stroke="#000000" points="2235.6482,-1728 2235.6482,-1774 2516.6482,-1774 2516.6482,-1728 2235.6482,-1728"/>
<text text-anchor="middle" x="2376.1482" y="-1758.8" font-family="Times,serif" font-size="14.00" fill="#000000">E3</text>
<polyline fill="none" stroke="#000000" points="2235.6482,-1751 2516.6482,-1751 "/>
<text text-anchor="middle" x="2376.1482" y="-1735.8" font-family="Times,serif" font-size="14.00" fill="#000000">expected unqualified&#45;id before numeric constant</text>
</g>
<!-- e3&#45;&gt;S0 -->
<g id="edge19" class="edge">
<title>e3:f&#45;&gt;S0</title>
<path fill="none" stroke="#000000" d="M2235.2882,-1774.0748C2112.6349,-1799.5847 2087.1053,-1843 1961.6482,-1843 531.1482,-1843 531.1482,-1843 531.1482,-1843 443.0283,-1843 195.2628,-1776.3143 126.6482,-1644 106.579,-1605.2992 90.9007,-1307.6543 86.0578,-1205.3788"/>
<polygon fill="#000000" stroke="#000000" points="89.5487,-1205.0999 85.5846,-1195.2746 82.5563,-1205.4275 89.5487,-1205.0999"/>
</g>
<!-- e3&#45;&gt;S0 -->
<g id="edge29" class="edge">
<title>e3:f&#45;&gt;S0</title>
<path fill="none" stroke="#000000" d="M2374.4433,-1727.7269C2362.5765,-1652.9857 2291.1485,-1658.7231 2235.6482,-1675 2161.5321,-1696.7365 2153.386,-1744 2076.1482,-1744 252.1482,-1744 252.1482,-1744 252.1482,-1744 149.0838,-1744 160.0449,-1646.5035 126.6482,-1549 103.8866,-1482.5461 92.8094,-1295.9772 87.909,-1205.3032"/>
<polygon fill="#000000" stroke="#000000" points="91.4009,-1205.0572 87.3696,-1195.2593 84.411,-1205.4326 91.4009,-1205.0572"/>
</g>
<!-- e3&#45;&gt;S0 -->
<g id="edge33" class="edge">
<title>e3:f&#45;&gt;S0</title>
<path fill="none" stroke="#000000" d="M2373.5088,-1727.7891C2359.2276,-1671.2612 2289.844,-1677.1057 2235.6482,-1693 2161.5321,-1714.7365 2153.386,-1762 2076.1482,-1762 252.1482,-1762 252.1482,-1762 252.1482,-1762 149.0838,-1762 160.0449,-1664.5035 126.6482,-1567 102.8166,-1497.4222 91.7938,-1296.1711 87.2583,-1205.2316"/>
<polygon fill="#000000" stroke="#000000" points="90.753,-1205.0372 86.7624,-1195.2227 83.7616,-1205.3837 90.753,-1205.0372"/>
</g>
<!-- e3&#45;&gt;S0 -->
<g id="edge39" class="edge">
<title>e3:f&#45;&gt;S0</title>
<path fill="none" stroke="#000000" d="M2371.4469,-1727.7893C2353.4845,-1689.7645 2287.5908,-1695.7665 2235.6482,-1711 2161.5321,-1732.7365 2153.386,-1780 2076.1482,-1780 252.1482,-1780 252.1482,-1780 252.1482,-1780 149.0838,-1780 160.0449,-1682.5035 126.6482,-1585 101.8042,-1512.4666 90.8805,-1296.8356 86.7149,-1205.5259"/>
<polygon fill="#000000" stroke="#000000" points="90.1999,-1205.1128 86.2514,-1195.2813 83.207,-1205.4293 90.1999,-1205.1128"/>
</g>
<!-- e3&#45;&gt;S0 -->
<g id="edge45" class="edge">
<title>e3:f&#45;&gt;S0</title>
<path fill="none" stroke="#000000" d="M2235.2147,-1729.1277C2161.5,-1750.9209 2153.2352,-1798 2076.1482,-1798 252.1482,-1798 252.1482,-1798 252.1482,-1798 149.0838,-1798 160.0449,-1700.5035 126.6482,-1603 100.8001,-1527.535 90.0202,-1297.1714 86.2424,-1205.4993"/>
<polygon fill="#000000" stroke="#000000" points="89.7304,-1205.13 85.8262,-1195.2808 82.7362,-1205.415 89.7304,-1205.13"/>
</g>
<!-- e3&#45;&gt;S0 -->
<g id="edge50" class="edge">
<title>e3:f&#45;&gt;S0</title>
<path fill="none" stroke="#000000" d="M2235.2147,-1747.1277C2161.5,-1768.9209 2153.2352,-1816 2076.1482,-1816 252.1482,-1816 252.1482,-1816 252.1482,-1816 149.0838,-1816 160.0449,-1718.5035 126.6482,-1621 99.8608,-1542.7926 89.2566,-1298.2236 85.8579,-1205.6294"/>
<polygon fill="#000000" stroke="#000000" points="89.346,-1205.2326 85.4876,-1195.3654 82.3506,-1205.4851 89.346,-1205.2326"/>
</g>
<!-- e3&#45;&gt;S0 -->
<g id="edge54" class="edge">
<title>e3:f&#45;&gt;S0</title>
<path fill="none" stroke="#000000" d="M2235.2147,-1765.1277C2161.5,-1786.9209 2153.2352,-1834 2076.1482,-1834 252.1482,-1834 252.1482,-1834 252.1482,-1834 149.0838,-1834 160.0449,-1736.5035 126.6482,-1639 98.9581,-1558.1573 88.5603,-1299.5525 85.5386,-1205.4776"/>
<polygon fill="#000000" stroke="#000000" points="89.0329,-1205.239 85.2215,-1195.3535 82.0363,-1205.4582 89.0329,-1205.239"/>
</g>
<!-- e3&#45;&gt;S0 -->
<g id="edge63" class="edge">
<title>e3:f&#45;&gt;S0</title>
<path fill="none" stroke="#000000" d="M2271.9159,-1774.046C2259.5903,-1776.6453 2247.2701,-1779.5916 2235.6482,-1783 2161.5321,-1804.7365 2153.386,-1852 2076.1482,-1852 252.1482,-1852 252.1482,-1852 252.1482,-1852 149.0838,-1852 160.0449,-1754.5035 126.6482,-1657 98.1511,-1573.801 87.9689,-1302.327 85.2929,-1205.5194"/>
<polygon fill="#000000" stroke="#000000" points="88.7882,-1205.2909 85.023,-1195.3877 81.7907,-1205.4774 88.7882,-1205.2909"/>
</g>
<!-- e3&#45;&gt;S0 -->
<g id="edge69" class="edge">
<title>e3:f&#45;&gt;S0</title>
<path fill="none" stroke="#000000" d="M2347.4332,-1774.0809C2318.7091,-1783.7073 2273.4785,-1789.9053 2235.6482,-1801 2161.5321,-1822.7365 2153.386,-1870 2076.1482,-1870 252.1482,-1870 252.1482,-1870 252.1482,-1870 149.0838,-1870 160.0449,-1772.5035 126.6482,-1675 97.4399,-1589.7248 87.4721,-1306.6603 85.1064,-1205.6636"/>
<polygon fill="#000000" stroke="#000000" points="88.599,-1205.2868 84.8775,-1195.3671 81.6007,-1205.4424 88.599,-1205.2868"/>
</g>
<!-- e3&#45;&gt;S0 -->
<g id="edge74" class="edge">
<title>e3:f&#45;&gt;S0</title>
<path fill="none" stroke="#000000" d="M2366.7665,-1774.2958C2343.9307,-1798.6908 2283.7959,-1804.8794 2235.6482,-1819 2161.5321,-1840.7365 2153.386,-1888 2076.1482,-1888 252.1482,-1888 252.1482,-1888 252.1482,-1888 149.0838,-1888 160.0449,-1790.5035 126.6482,-1693 96.7948,-1605.8413 87.0412,-1312.0596 84.9607,-1205.5608"/>
<polygon fill="#000000" stroke="#000000" points="88.4548,-1205.2014 84.773,-1195.2669 81.456,-1205.3291 88.4548,-1205.2014"/>
</g>
<!-- e3&#45;&gt;S0 -->
<g id="edge79" class="edge">
<title>e3:f&#45;&gt;S0</title>
<path fill="none" stroke="#000000" d="M2371.8092,-1774.0619C2354.3878,-1815.6828 2287.9465,-1821.6621 2235.6482,-1837 2161.5321,-1858.7365 2153.386,-1906 2076.1482,-1906 252.1482,-1906 252.1482,-1906 252.1482,-1906 149.0838,-1906 160.0449,-1808.5035 126.6482,-1711 96.2472,-1622.2425 86.6901,-1319.212 84.8539,-1205.5557"/>
<polygon fill="#000000" stroke="#000000" points="88.3524,-1205.424 84.7041,-1195.4771 81.3532,-1205.5281 88.3524,-1205.424"/>
</g>
<!-- e3&#45;&gt;S0 -->
<g id="edge84" class="edge">
<title>e3:f&#45;&gt;S0</title>
<path fill="none" stroke="#000000" d="M2373.6018,-1774.2029C2359.5313,-1833.2357 2289.9626,-1839.0709 2235.6482,-1855 2161.5321,-1876.7365 2153.386,-1924 2076.1482,-1924 252.1482,-1924 252.1482,-1924 252.1482,-1924 149.0838,-1924 160.0449,-1826.5035 126.6482,-1729 95.7933,-1638.9174 86.4094,-1328.1161 84.7767,-1205.6966"/>
<polygon fill="#000000" stroke="#000000" points="88.274,-1205.4397 84.6534,-1195.4827 81.2745,-1205.5243 88.274,-1205.4397"/>
</g>
<!-- e3&#45;&gt;S0 -->
<g id="edge88" class="edge">
<title>e3:f&#45;&gt;S0</title>
<path fill="none" stroke="#000000" d="M2374.5186,-1774.0214C2362.8818,-1850.9612 2291.2671,-1856.6883 2235.6482,-1873 2161.5321,-1894.7365 2153.386,-1942 2076.1482,-1942 252.1482,-1942 252.1482,-1942 252.1482,-1942 149.0838,-1942 160.0449,-1844.5035 126.6482,-1747 95.4034,-1655.7791 86.1757,-1338.2264 84.7185,-1205.7553"/>
<polygon fill="#000000" stroke="#000000" points="88.215,-1205.3733 84.617,-1195.4082 81.2154,-1205.4421 88.215,-1205.3733"/>
</g>
<!-- e4 -->
<g id="node5" class="node">
<title>e4</title>
<polygon fill="none" stroke="#000000" points="1031.6482,-1442 1031.6482,-1488 1276.6482,-1488 1276.6482,-1442 1031.6482,-1442"/>
<text text-anchor="middle" x="1154.1482" y="-1472.8" font-family="Times,serif" font-size="14.00" fill="#000000">E4</text>
<polyline fill="none" stroke="#000000" points="1031.6482,-1465 1276.6482,-1465 "/>
<text text-anchor="middle" x="1154.1482" y="-1449.8" font-family="Times,serif" font-size="14.00" fill="#000000">no digits in hexadecimal floating constant</text>
</g>
<!-- e4&#45;&gt;S0 -->
<g id="edge35" class="edge">
<title>e4:f&#45;&gt;S0</title>
<path fill="none" stroke="#000000" d="M1031.2883,-1488.2909C1016.2763,-1500.641 1029.5099,-1517.2402 1013.6482,-1529 941.3766,-1582.5821 902.6161,-1553 812.6482,-1553 252.1482,-1553 252.1482,-1553 252.1482,-1553 193.3298,-1553 163.8881,-1556.528 126.6482,-1511 107.5243,-1487.6199 92.2124,-1287.2774 86.7036,-1205.5236"/>
<polygon fill="#000000" stroke="#000000" points="90.1767,-1205.0017 86.0214,-1195.2558 83.1921,-1205.4659 90.1767,-1205.0017"/>
</g>
<!-- e5 -->
<g id="node6" class="node">
<title>e5</title>
<polygon fill="none" stroke="#000000" points="1375.6482,-1404 1375.6482,-1450 1672.6482,-1450 1672.6482,-1404 1375.6482,-1404"/>
<text text-anchor="middle" x="1524.1482" y="-1434.8" font-family="Times,serif" font-size="14.00" fill="#000000">E5</text>
<polyline fill="none" stroke="#000000" points="1375.6482,-1427 1672.6482,-1427 "/>
<text text-anchor="middle" x="1524.1482" y="-1411.8" font-family="Times,serif" font-size="14.00" fill="#000000">hexadecimal floating constants require an exponent</text>
</g>
<!-- e5&#45;&gt;S0 -->
<g id="edge41" class="edge">
<title>e5:f&#45;&gt;S0</title>
<path fill="none" stroke="#000000" d="M1375.1762,-1426.9817C1214.3217,-1420.7428 1174.74,-1405.2208 1013.6482,-1399 971.4574,-1397.3707 956.6049,-1380.5066 918.6482,-1399 906.9791,-1404.6855 911.6481,-1415.1083 900.6482,-1422 832.834,-1464.4875 796.0086,-1423.7833 724.6482,-1460 715.1035,-1464.8441 716.6054,-1472.0729 706.6482,-1476 673.1485,-1489.2121 661.6564,-1477.5555 625.6482,-1478 541.6546,-1479.0368 519.9794,-1488.5791 436.6482,-1478 295.4895,-1460.0795 223.7347,-1502.0246 126.6482,-1398 101.0835,-1370.6083 90.3796,-1262.1633 86.4653,-1205.656"/>
<polygon fill="#000000" stroke="#000000" points="89.9404,-1205.1617 85.7909,-1195.4133 82.9555,-1205.6216 89.9404,-1205.1617"/>
</g>
<!-- e6 -->
<g id="node7" class="node">
<title>e6</title>
<polygon fill="none" stroke="#000000" points="2006.6482,-862 2006.6482,-908 2145.6482,-908 2145.6482,-862 2006.6482,-862"/>
<text text-anchor="middle" x="2076.1482" y="-892.8" font-family="Times,serif" font-size="14.00" fill="#000000">E6</text>
<polyline fill="none" stroke="#000000" points="2006.6482,-885 2145.6482,-885 "/>
<text text-anchor="middle" x="2076.1482" y="-869.8" font-family="Times,serif" font-size="14.00" fill="#000000">exponent has no digits</text>
</g>
<!-- e6&#45;&gt;S0 -->
<g id="edge47" class="edge">
<title>e6:f&#45;&gt;S0</title>
<path fill="none" stroke="#000000" d="M2006.6482,-897C1889.0719,-897 1860.2246,-880 1742.6482,-880 675.1482,-880 675.1482,-880 675.1482,-880 34.0289,-880 212.504,-897.672 126.6482,-997 108.772,-1017.6813 95.5628,-1092.0895 89.0467,-1136.6289"/>
<polygon fill="#000000" stroke="#000000" points="85.5542,-1136.3284 87.6096,-1146.7219 92.4843,-1137.3152 85.5542,-1136.3284"/>
</g>
<!-- e6&#45;&gt;S0 -->
<g id="edge56" class="edge">
<title>e6:f&#45;&gt;S0</title>
<path fill="none" stroke="#000000" d="M2006.6482,-897C1943.0864,-879 1928.21,-862 1864.6482,-862 675.1482,-862 675.1482,-862 675.1482,-862 -74.4817,-862 203.0098,-890.4496 126.6482,-975 106.2794,-997.5531 92.8091,-1085.871 87.3069,-1136.5376"/>
<polygon fill="#000000" stroke="#000000" points="83.7991,-1136.4342 86.2541,-1146.7406 90.7621,-1137.1527 83.7991,-1136.4342"/>
</g>
<!-- e6&#45;&gt;S0 -->
<g id="edge81" class="edge">
<title>e6:f&#45;&gt;S0</title>
<path fill="none" stroke="#000000" d="M2006.2763,-896.9998C1943.0281,-896.9337 1928.0858,-880 1864.6482,-880 675.1482,-880 675.1482,-880 675.1482,-880 -74.4817,-880 203.0098,-908.4496 126.6482,-993 107.7896,-1013.881 94.8444,-1091.1367 88.6617,-1136.7203"/>
<polygon fill="#000000" stroke="#000000" points="85.176,-1136.3829 87.3404,-1146.7543 92.1161,-1137.2969 85.176,-1136.3829"/>
</g>
<!-- e6&#45;&gt;S0 -->
<g id="edge90" class="edge">
<title>e6:f&#45;&gt;S0</title>
<path fill="none" stroke="#000000" d="M2006.2763,-897.1051C1943.0281,-914.9337 1928.0858,-898 1864.6482,-898 675.1482,-898 675.1482,-898 675.1482,-898 -74.4817,-898 203.0098,-926.4496 126.6482,-1011 109.5275,-1029.9567 97.2806,-1095.3761 90.5427,-1136.9132"/>
<polygon fill="#000000" stroke="#000000" points="87.066,-1136.4899 88.9487,-1146.9161 93.9788,-1137.5915 87.066,-1136.4899"/>
</g>
<!-- e7 -->
<g id="node8" class="node">
<title>e7</title>
<polygon fill="none" stroke="#000000" points="724.6482,-1148 724.6482,-1194 900.6482,-1194 900.6482,-1148 724.6482,-1148"/>
<text text-anchor="middle" x="812.6482" y="-1178.8" font-family="Times,serif" font-size="14.00" fill="#000000">E7</text>
<polyline fill="none" stroke="#000000" points="724.6482,-1171 900.6482,-1171 "/>
<text text-anchor="middle" x="812.6482" y="-1155.8" font-family="Times,serif" font-size="14.00" fill="#000000">invalid digit in octal constant</text>
</g>
<!-- e7&#45;&gt;S0 -->
<g id="edge61" class="edge">
<title>e7:f&#45;&gt;S0</title>
<path fill="none" stroke="#000000" d="M724.6482,-1183C707.5501,-1183 721.2963,-1157.8193 706.6482,-1149 655.2459,-1118.0516 496.5084,-1144.9067 436.6482,-1149 378.0159,-1153.0093 364.1887,-1161.8195 305.6482,-1167 226.3714,-1174.0155 206.2292,-1172.9439 126.6482,-1172 124.2398,-1171.9714 121.7542,-1171.9337 119.251,-1171.8896"/>
<polygon fill="#000000" stroke="#000000" points="119.0839,-1168.3855 109.0143,-1171.6799 118.9404,-1175.3841 119.0839,-1168.3855"/>
</g>
<!-- e8 -->
<g id="node9" class="node">
<title>e8</title>
<polygon fill="none" stroke="#000000" points="1823.6482,-280 1823.6482,-326 1905.6482,-326 1905.6482,-280 1823.6482,-280"/>
<text text-anchor="middle" x="1864.6482" y="-310.8" font-family="Times,serif" font-size="14.00" fill="#000000">E8</text>
<polyline fill="none" stroke="#000000" points="1823.6482,-303 1905.6482,-303 "/>
<text text-anchor="middle" x="1864.6482" y="-287.8" font-family="Times,serif" font-size="14.00" fill="#000000">illegal char!</text>
</g>
<!-- e8&#45;&gt;S0 -->
<g id="edge107" class="edge">
<title>e8:f&#45;&gt;S0</title>
<path fill="none" stroke="#000000" d="M1823.6482,-315C1690.5371,-315 1657.2593,-315 1524.1482,-315 531.1482,-315 531.1482,-315 531.1482,-315 346.58,-315 245.3893,-267.699 126.6482,-409 102.9481,-437.203 88.6132,-991.6713 85.2615,-1136.5888"/>
<polygon fill="#000000" stroke="#000000" points="81.7602,-1136.6069 85.0305,-1146.6844 88.7584,-1136.7671 81.7602,-1136.6069"/>
</g>
<!-- e8&#45;&gt;S0 -->
<g id="edge110" class="edge">
<title>e8:f&#45;&gt;S0</title>
<path fill="none" stroke="#000000" d="M1823.6482,-315C1690.5371,-288 1657.2593,-288 1524.1482,-288 252.1482,-288 252.1482,-288 252.1482,-288 183.5103,-288 159.6643,-317.8245 126.6482,-378 90.4364,-444 85.3118,-990.8958 84.6087,-1136.3799"/>
<polygon fill="#000000" stroke="#000000" points="81.1081,-1136.5187 84.5638,-1146.5341 88.108,-1136.5497 81.1081,-1136.5187"/>
</g>
<!-- e8&#45;&gt;S0 -->
<g id="edge113" class="edge">
<title>e8:f&#45;&gt;S0</title>
<path fill="none" stroke="#000000" d="M1823.2585,-314.9737C1690.472,-306 1657.1293,-306 1524.1482,-306 252.1482,-306 252.1482,-306 252.1482,-306 183.5103,-306 159.6643,-335.8245 126.6482,-396 90.9409,-461.0804 85.4606,-993.7493 84.6407,-1136.1789"/>
<polygon fill="#000000" stroke="#000000" points="81.1391,-1136.4823 84.5856,-1146.5009 88.139,-1136.5197 81.1391,-1136.4823"/>
</g>
<!-- e8&#45;&gt;S0 -->
<g id="edge117" class="edge">
<title>e8:f&#45;&gt;S0</title>
<path fill="none" stroke="#000000" d="M1823.2585,-315.0263C1690.472,-324 1657.1293,-324 1524.1482,-324 252.1482,-324 252.1482,-324 252.1482,-324 183.5103,-324 159.6643,-353.8245 126.6482,-414 91.4483,-478.1558 85.6225,-996.7078 84.6785,-1136.4853"/>
<polygon fill="#000000" stroke="#000000" points="81.1778,-1136.6018 84.6143,-1146.6238 88.1777,-1136.6462 81.1778,-1136.6018"/>
</g>
<!-- e8&#45;&gt;S0 -->
<g id="edge125" class="edge">
<title>e8:f&#45;&gt;S0</title>
<path fill="none" stroke="#000000" d="M1823.2585,-315.079C1690.472,-342 1657.1293,-342 1524.1482,-342 252.1482,-342 252.1482,-342 252.1482,-342 183.5103,-342 159.6643,-371.8245 126.6482,-432 92.0336,-495.0889 85.8244,-997.5867 84.7298,-1136.3713"/>
<polygon fill="#000000" stroke="#000000" points="81.2293,-1136.4375 84.6543,-1146.4634 88.2291,-1136.49 81.2293,-1136.4375"/>
</g>
<!-- e9 -->
<g id="node10" class="node">
<title>e9</title>
<polygon fill="none" stroke="#000000" points="436.6482,-380 436.6482,-426 625.6482,-426 625.6482,-380 436.6482,-380"/>
<text text-anchor="middle" x="531.1482" y="-410.8" font-family="Times,serif" font-size="14.00" fill="#000000">E9</text>
<polyline fill="none" stroke="#000000" points="436.6482,-403 625.6482,-403 "/>
<text text-anchor="middle" x="531.1482" y="-387.8" font-family="Times,serif" font-size="14.00" fill="#000000">missing terminating &quot; character</text>
</g>
<!-- e9&#45;&gt;S0 -->
<g id="edge121" class="edge">
<title>e9:f&#45;&gt;S0</title>
<path fill="none" stroke="#000000" d="M436.6482,-415C428.4531,-415 426.7818,-412.0023 418.6482,-411 321.5954,-399.0408 295.3621,-393.5539 198.6482,-408 165.5549,-412.9431 147.3094,-403.6804 126.6482,-430 104.5965,-458.0909 89.1259,-993.3782 85.3785,-1136.2161"/>
<polygon fill="#000000" stroke="#000000" points="81.8706,-1136.4772 85.1096,-1146.5648 88.8682,-1136.6591 81.8706,-1136.4772"/>
</g>
<!-- S1&#45;&gt;S0 -->
<g id="edge14" class="edge">
<title>S1&#45;&gt;S0</title>
<path fill="none" stroke="#000000" d="M233.0494,-2006.1436C205.5726,-2015.0418 155.0762,-2026.0177 126.6482,-1999 97.451,-1971.2512 87.0865,-1358.7949 84.9452,-1205.529"/>
<polygon fill="#000000" stroke="#000000" points="88.4418,-1205.2528 84.8051,-1195.3017 81.4425,-1205.3488 88.4418,-1205.2528"/>
<text text-anchor="middle" x="153.6482" y="-2019.8" font-family="Times,serif" font-size="14.00" fill="#000000">OTHERS</text>
</g>
<!-- S1&#45;&gt;S1 -->
<g id="edge13" class="edge">
<title>S1&#45;&gt;S1</title>
<path fill="none" stroke="#000000" d="M236.8058,-2012.6893C229.8075,-2024.5749 234.9216,-2037.1482 252.1482,-2037.1482 264.6644,-2037.1482 270.7865,-2030.5109 270.5145,-2022.3224"/>
<polygon fill="#000000" stroke="#000000" points="273.825,-2021.182 267.4906,-2012.6893 267.1464,-2023.2785 273.825,-2021.182"/>
<text text-anchor="middle" x="252.1482" y="-2040.9482" font-family="Times,serif" font-size="14.00" fill="#000000">_ a&#45;z A&#45;Z 0&#45;9</text>
</g>
<!-- S2&#45;&gt;S0 -->
<g id="edge20" class="edge">
<title>S2&#45;&gt;S0</title>
<path fill="none" stroke="#000000" d="M234.2308,-1288.1732C219.9488,-1280.5379 199.3184,-1269.9461 180.6482,-1262 157.238,-1252.0365 146.2744,-1259.1901 126.6482,-1243 113.8479,-1232.4407 104.0633,-1216.9131 97.1588,-1202.9786"/>
<polygon fill="#000000" stroke="#000000" points="100.2217,-1201.2641 92.8372,-1193.6668 93.8722,-1204.2109 100.2217,-1201.2641"/>
<text text-anchor="middle" x="153.6482" y="-1265.8" font-family="Times,serif" font-size="14.00" fill="#000000">OTHERS</text>
</g>
<!-- S2&#45;&gt;e3 -->
<g id="edge18" class="edge">
<title>S2&#45;&gt;e3:f</title>
<path fill="none" stroke="#000000" d="M272.123,-1301.1149C286.4298,-1303.1989 306.1754,-1305.7757 323.6482,-1307 746.2135,-1336.6078 853.283,-1306.8616 1276.6482,-1321 1507.0545,-1328.6945 1564.5116,-1334.4574 1794.6482,-1348 1951.2417,-1357.2149 1993.8339,-1345.5178 2145.6482,-1385 2179.0358,-1393.6831 2197.5859,-1385.9353 2217.6482,-1414 2237.8849,-1442.3086 2212.6282,-1686.0792 2230.6345,-1741.6522"/>
<polygon fill="#000000" stroke="#000000" points="2227.6132,-1743.4285 2235.332,-1750.686 2233.8238,-1740.1991 2227.6132,-1743.4285"/>
<text text-anchor="middle" x="1326.1482" y="-1326.8" font-family="Times,serif" font-size="14.00" fill="#000000">_ a&#45;z A&#45;Z</text>
</g>
<!-- S3 -->
<g id="node20" class="node">
<title>S3</title>
<ellipse fill="none" stroke="#000000" cx="531.1482" cy="-1449" rx="20.2975" ry="20.2975"/>
<text text-anchor="middle" x="531.1482" y="-1445.3" font-family="Times,serif" font-size="14.00" fill="#000000">S3</text>
</g>
<!-- S2&#45;&gt;S3 -->
<g id="edge15" class="edge">
<title>S2&#45;&gt;S3</title>
<path fill="none" stroke="#000000" d="M269.6863,-1308.2731C284.1045,-1316.6665 305.1044,-1328.7717 323.6482,-1339 387.7998,-1374.3845 464.1219,-1414.2886 503.9253,-1434.9355"/>
<polygon fill="#000000" stroke="#000000" points="502.5096,-1438.1439 512.9988,-1439.6366 505.7299,-1431.9286 502.5096,-1438.1439"/>
<text text-anchor="middle" x="371.1482" y="-1390.8" font-family="Times,serif" font-size="14.00" fill="#000000">x(X)</text>
</g>
<!-- S10 -->
<g id="node21" class="node">
<title>S10</title>
<ellipse fill="none" stroke="#000000" cx="531.1482" cy="-1239" rx="24.8972" ry="24.8972"/>
<text text-anchor="middle" x="531.1482" y="-1235.3" font-family="Times,serif" font-size="14.00" fill="#000000">S10</text>
</g>
<!-- S2&#45;&gt;S10 -->
<g id="edge16" class="edge">
<title>S2&#45;&gt;S10</title>
<path fill="none" stroke="#000000" d="M272.2826,-1295.5051C303.7333,-1291.4352 366.3381,-1282.6396 418.6482,-1271 445.4626,-1265.0335 475.3531,-1256.4369 497.5806,-1249.656"/>
<polygon fill="#000000" stroke="#000000" points="498.6913,-1252.9762 507.2154,-1246.6842 496.628,-1246.2871 498.6913,-1252.9762"/>
<text text-anchor="middle" x="371.1482" y="-1291.8" font-family="Times,serif" font-size="14.00" fill="#000000">0&#45;7</text>
</g>
<!-- S12 -->
<g id="node22" class="node">
<title>S12</title>
<ellipse fill="none" stroke="#000000" cx="812.6482" cy="-1072" rx="24.8972" ry="24.8972"/>
<text text-anchor="middle" x="812.6482" y="-1068.3" font-family="Times,serif" font-size="14.00" fill="#000000">S12</text>
</g>
<!-- S2&#45;&gt;S12 -->
<g id="edge17" class="edge">
<title>S2&#45;&gt;S12</title>
<path fill="none" stroke="#000000" d="M268.7712,-1286.5626C300.32,-1265.2503 371.5543,-1219.0005 436.6482,-1190 524.8536,-1150.7029 551.5005,-1152.866 643.6482,-1124 690.505,-1109.3218 744.7849,-1092.6853 778.9191,-1082.2681"/>
<polygon fill="#000000" stroke="#000000" points="780.2911,-1085.5089 788.8351,-1079.2439 778.249,-1078.8133 780.2911,-1085.5089"/>
<text text-anchor="middle" x="531.1482" y="-1193.8" font-family="Times,serif" font-size="14.00" fill="#000000">.</text>
</g>
<!-- S11&#45;&gt;S0 -->
<g id="edge70" class="edge">
<title>S11&#45;&gt;S0</title>
<path fill="none" stroke="#000000" d="M506.4085,-960.1355C426.4303,-961.1388 177.1127,-968.8734 126.6482,-1026 112.0925,-1042.4773 98.517,-1099.609 90.8857,-1137.0483"/>
<polygon fill="#000000" stroke="#000000" points="87.4174,-1136.5444 88.8951,-1147.0357 94.2824,-1137.9128 87.4174,-1136.5444"/>
<text text-anchor="middle" x="252.1482" y="-993.8" font-family="Times,serif" font-size="14.00" fill="#000000">OTHERS</text>
</g>
<!-- S11&#45;&gt;e3 -->
<g id="edge68" class="edge">
<title>S11&#45;&gt;e3:f</title>
<path fill="none" stroke="#000000" d="M555.996,-958.9671C605.0503,-957.02 717.8081,-953 812.6482,-953 812.6482,-953 812.6482,-953 2076.1482,-953 2162.1528,-953 2182.2988,-1006.5958 2217.6482,-1085 2232.0029,-1116.8383 2211.6796,-1658.5589 2231.6218,-1741.2888"/>
<polygon fill="#000000" stroke="#000000" points="2228.4018,-1742.6637 2235.3397,-1750.671 2234.9095,-1740.0848 2228.4018,-1742.6637"/>
<text text-anchor="middle" x="1524.1482" y="-956.8" font-family="Times,serif" font-size="14.00" fill="#000000">_ a&#45;z A&#45;Z</text>
</g>
<!-- S11&#45;&gt;S11 -->
<g id="edge65" class="edge">
<title>S11&#45;&gt;S11</title>
<path fill="none" stroke="#000000" d="M510.0808,-973.554C497.6883,-987.3463 504.7107,-1002.6978 531.1482,-1002.6978 552.0091,-1002.6978 560.7817,-993.1397 557.4662,-982.3314"/>
<polygon fill="#000000" stroke="#000000" points="560.3528,-980.339 552.2156,-973.554 554.3456,-983.9325 560.3528,-980.339"/>
<text text-anchor="middle" x="531.1482" y="-1006.4978" font-family="Times,serif" font-size="14.00" fill="#000000">0&#45;9</text>
</g>
<!-- S11&#45;&gt;S12 -->
<g id="edge66" class="edge">
<title>S11&#45;&gt;S12</title>
<path fill="none" stroke="#000000" d="M554.804,-967.8493C595.8062,-981.5167 678.3972,-1009.3384 706.6482,-1021 732.349,-1031.6088 760.6942,-1045.3585 781.6018,-1055.9075"/>
<polygon fill="#000000" stroke="#000000" points="780.1481,-1059.0948 790.6485,-1060.5064 783.3202,-1052.8547 780.1481,-1059.0948"/>
<text text-anchor="middle" x="675.1482" y="-1024.8" font-family="Times,serif" font-size="14.00" fill="#000000">.</text>
</g>
<!-- S13 -->
<g id="node29" class="node">
<title>S13</title>
<ellipse fill="none" stroke="#000000" cx="1524.1482" cy="-1116" rx="24.8972" ry="24.8972"/>
<text text-anchor="middle" x="1524.1482" y="-1112.3" font-family="Times,serif" font-size="14.00" fill="#000000">S13</text>
</g>
<!-- S11&#45;&gt;S13 -->
<g id="edge67" class="edge">
<title>S11&#45;&gt;S13</title>
<path fill="none" stroke="#000000" d="M555.7622,-963.712C626.794,-974.4379 838.252,-1006.4636 1013.6482,-1034 1192.9023,-1062.1421 1407.3624,-1096.9672 1489.6691,-1110.3753"/>
<polygon fill="#000000" stroke="#000000" points="1489.2838,-1113.8586 1499.7165,-1112.0126 1490.4097,-1106.9497 1489.2838,-1113.8586"/>
<text text-anchor="middle" x="966.1482" y="-1037.8" font-family="Times,serif" font-size="14.00" fill="#000000">e(E)</text>
</g>
<!-- S16&#45;&gt;S0 -->
<g id="edge92" class="edge">
<title>S16&#45;&gt;S0</title>
<path fill="none" stroke="#000000" d="M228.3714,-1125.5465C202.2699,-1118.7264 159.684,-1111.6787 126.6482,-1126 118.3187,-1129.6109 110.8822,-1135.7684 104.6612,-1142.3887"/>
<polygon fill="#000000" stroke="#000000" points="101.7782,-1140.3747 97.936,-1150.2483 107.0968,-1144.9257 101.7782,-1140.3747"/>
<text text-anchor="middle" x="153.6482" y="-1129.8" font-family="Times,serif" font-size="14.00" fill="#000000">OTHERS</text>
</g>
<!-- S16&#45;&gt;S12 -->
<g id="edge91" class="edge">
<title>S16&#45;&gt;S12</title>
<path fill="none" stroke="#000000" d="M276.5637,-1128.9889C311.8277,-1123.2954 379.1028,-1112.8072 436.6482,-1106 561.8135,-1091.1939 711.0927,-1079.4473 777.6375,-1074.5179"/>
<polygon fill="#000000" stroke="#000000" points="778.2471,-1077.9826 787.9635,-1073.7587 777.7337,-1071.0014 778.2471,-1077.9826"/>
<text text-anchor="middle" x="531.1482" y="-1109.8" font-family="Times,serif" font-size="14.00" fill="#000000">0&#45;9</text>
</g>
<!-- S17&#45;&gt;S0 -->
<g id="edge93" class="edge">
<title>S17&#45;&gt;S0</title>
<path fill="none" stroke="#000000" d="M228.9461,-809.1175C194.5024,-822.8609 133.1771,-848.2118 126.6482,-857 94.2787,-900.571 86.7684,-1063.5978 85.0261,-1135.9886"/>
<polygon fill="#000000" stroke="#000000" points="81.5182,-1136.3186 84.8008,-1146.3921 88.5166,-1136.4702 81.5182,-1136.3186"/>
<text text-anchor="middle" x="153.6482" y="-860.8" font-family="Times,serif" font-size="14.00" fill="#000000">\r \n</text>
</g>
<!-- S17&#45;&gt;S17 -->
<g id="edge94" class="edge">
<title>S17&#45;&gt;S17</title>
<path fill="none" stroke="#000000" d="M235.3927,-818.4329C230.6763,-830.729 236.2615,-842.6978 252.1482,-842.6978 263.5668,-842.6978 269.6636,-836.5147 270.4386,-828.4711"/>
<polygon fill="#000000" stroke="#000000" points="273.875,-827.789 268.9037,-818.4329 266.9555,-828.8471 273.875,-827.789"/>
<text text-anchor="middle" x="252.1482" y="-846.4978" font-family="Times,serif" font-size="14.00" fill="#000000">OTHERS</text>
</g>
<!-- S18&#45;&gt;S18 -->
<g id="edge96" class="edge">
<title>S18&#45;&gt;S18</title>
<path fill="none" stroke="#000000" d="M235.3927,-718.4329C230.6763,-730.729 236.2615,-742.6978 252.1482,-742.6978 263.5668,-742.6978 269.6636,-736.5147 270.4386,-728.4711"/>
<polygon fill="#000000" stroke="#000000" points="273.875,-727.789 268.9037,-718.4329 266.9555,-728.8471 273.875,-727.789"/>
<text text-anchor="middle" x="252.1482" y="-746.4978" font-family="Times,serif" font-size="14.00" fill="#000000">OTHERS</text>
</g>
<!-- S19 -->
<g id="node32" class="node">
<title>S19</title>
<ellipse fill="none" stroke="#000000" cx="531.1482" cy="-675" rx="24.8972" ry="24.8972"/>
<text text-anchor="middle" x="531.1482" y="-671.3" font-family="Times,serif" font-size="14.00" fill="#000000">S19</text>
</g>
<!-- S18&#45;&gt;S19 -->
<g id="edge95" class="edge">
<title>S18&#45;&gt;S19</title>
<path fill="none" stroke="#000000" d="M275.1762,-690.1808C288.9595,-684.8358 306.9847,-678.7633 323.6482,-676 383.6407,-666.0515 454.7374,-668.7882 496.2091,-671.8066"/>
<polygon fill="#000000" stroke="#000000" points="496.098,-675.3084 506.339,-672.5931 496.6399,-668.3295 496.098,-675.3084"/>
<text text-anchor="middle" x="371.1482" y="-679.8" font-family="Times,serif" font-size="14.00" fill="#000000">*</text>
</g>
<!-- S20&#45;&gt;S0 -->
<g id="edge100" class="edge">
<title>S20&#45;&gt;S0</title>
<path fill="none" stroke="#000000" d="M227.6025,-583.8697C194.85,-588.2419 139.4775,-597.7147 126.6482,-613 92.996,-653.0944 86.133,-1021.1701 84.804,-1136.5667"/>
<polygon fill="#000000" stroke="#000000" points="81.3037,-1136.5804 84.6951,-1146.6178 88.3033,-1136.6563 81.3037,-1136.5804"/>
<text text-anchor="middle" x="153.6482" y="-616.8" font-family="Times,serif" font-size="14.00" fill="#000000">OTHERS</text>
</g>
<!-- S21 -->
<g id="node33" class="node">
<title>S21</title>
<ellipse fill="none" stroke="#000000" cx="531.1482" cy="-559" rx="24.8972" ry="24.8972"/>
<text text-anchor="middle" x="531.1482" y="-555.3" font-family="Times,serif" font-size="14.00" fill="#000000">S21</text>
</g>
<!-- S20&#45;&gt;S21 -->
<g id="edge99" class="edge">
<title>S20&#45;&gt;S21</title>
<path fill="none" stroke="#000000" d="M276.9076,-579.0476C326.7504,-575.1174 439.296,-566.2428 496.4455,-561.7364"/>
<polygon fill="#000000" stroke="#000000" points="496.7504,-565.2233 506.4443,-560.948 496.2001,-558.245 496.7504,-565.2233"/>
<text text-anchor="middle" x="371.1482" y="-578.8" font-family="Times,serif" font-size="14.00" fill="#000000">str[0]</text>
</g>
<!-- S23 -->
<g id="node34" class="node">
<title>S23</title>
<ellipse fill="none" stroke="#000000" cx="531.1482" cy="-185" rx="24.8972" ry="24.8972"/>
<text text-anchor="middle" x="531.1482" y="-181.3" font-family="Times,serif" font-size="14.00" fill="#000000">S23</text>
</g>
<!-- S22&#45;&gt;S23 -->
<g id="edge102" class="edge">
<title>S22&#45;&gt;S23</title>
<path fill="none" stroke="#000000" d="M276.9076,-185C326.647,-185 438.8293,-185 496.0891,-185"/>
<polygon fill="#000000" stroke="#000000" points="496.4443,-188.5001 506.4443,-185 496.4443,-181.5001 496.4443,-188.5001"/>
<text text-anchor="middle" x="371.1482" y="-188.8" font-family="Times,serif" font-size="14.00" fill="#000000">\</text>
</g>
<!-- S24 -->
<g id="node35" class="node">
<title>S24</title>
<ellipse fill="none" stroke="#000000" cx="1524.1482" cy="-84" rx="24.8972" ry="24.8972"/>
<text text-anchor="middle" x="1524.1482" y="-80.3" font-family="Times,serif" font-size="14.00" fill="#000000">S24</text>
</g>
<!-- S22&#45;&gt;S24 -->
<g id="edge103" class="edge">
<title>S22&#45;&gt;S24</title>
<path fill="none" stroke="#000000" d="M276.6106,-180.4359C311.9318,-173.8587 379.2758,-161.3661 436.6482,-151 650.0616,-112.4404 702.2245,-88.8874 918.6482,-75 960.7838,-72.2963 971.4276,-74.6279 1013.6482,-75 1192.6101,-76.5774 1406.8205,-81.2647 1489.3653,-83.1754"/>
<polygon fill="#000000" stroke="#000000" points="1489.3681,-86.6763 1499.4469,-83.4102 1489.5311,-79.6782 1489.3681,-86.6763"/>
<text text-anchor="middle" x="812.6482" y="-99.8" font-family="Times,serif" font-size="14.00" fill="#000000">OTHERS</text>
</g>
<!-- S27&#45;&gt;S0 -->
<g id="edge119" class="edge">
<title>S27&#45;&gt;S0</title>
<path fill="none" stroke="#000000" d="M229.2674,-451.6699C193.9305,-466.7055 129.7891,-494.4438 126.6482,-499 108.3994,-525.4718 90.3825,-1002.9108 85.681,-1136.5153"/>
<polygon fill="#000000" stroke="#000000" points="82.1802,-1136.4813 85.3286,-1146.5975 89.1759,-1136.7259 82.1802,-1136.4813"/>
<text text-anchor="middle" x="153.6482" y="-502.8" font-family="Times,serif" font-size="14.00" fill="#000000">&quot;</text>
</g>
<!-- S27&#45;&gt;e9 -->
<g id="edge120" class="edge">
<title>S27&#45;&gt;e9:f</title>
<path fill="none" stroke="#000000" d="M276.1611,-436.2078C309.1576,-428.7392 370.7605,-416.5372 426.3472,-415.133"/>
<polygon fill="#000000" stroke="#000000" points="426.6943,-418.6289 436.6482,-415 426.6038,-411.6295 426.6943,-418.6289"/>
<text text-anchor="middle" x="371.1482" y="-429.8" font-family="Times,serif" font-size="14.00" fill="#000000">\r \n</text>
</g>
<!-- S27&#45;&gt;S27 -->
<g id="edge122" class="edge">
<title>S27&#45;&gt;S27</title>
<path fill="none" stroke="#000000" d="M235.3927,-460.4329C230.6763,-472.729 236.2615,-484.6978 252.1482,-484.6978 263.5668,-484.6978 269.6636,-478.5147 270.4386,-470.4711"/>
<polygon fill="#000000" stroke="#000000" points="273.875,-469.789 268.9037,-460.4329 266.9555,-470.8471 273.875,-469.789"/>
<text text-anchor="middle" x="252.1482" y="-488.4978" font-family="Times,serif" font-size="14.00" fill="#000000">OTHERS</text>
</g>
<!-- S28 -->
<g id="node38" class="node">
<title>S28</title>
<ellipse fill="none" stroke="#000000" cx="531.1482" cy="-469" rx="24.8972" ry="24.8972"/>
<text text-anchor="middle" x="531.1482" y="-465.3" font-family="Times,serif" font-size="14.00" fill="#000000">S28</text>
</g>
<!-- S27&#45;&gt;S28 -->
<g id="edge118" class="edge">
<title>S27&#45;&gt;S28</title>
<path fill="none" stroke="#000000" d="M276.9076,-444.3961C326.7504,-449.2196 439.296,-460.1111 496.4455,-465.6417"/>
<polygon fill="#000000" stroke="#000000" points="496.1536,-469.1297 506.4443,-466.6093 496.828,-462.1622 496.1536,-469.1297"/>
<text text-anchor="middle" x="371.1482" y="-460.8" font-family="Times,serif" font-size="14.00" fill="#000000">\</text>
</g>
<!-- S3&#45;&gt;e2 -->
<g id="edge23" class="edge">
<title>S3&#45;&gt;e2:f</title>
<path fill="none" stroke="#000000" d="M550.9427,-1444.7809C594.0941,-1435.5835 697.8166,-1413.4757 760.9569,-1400.0177"/>
<polygon fill="#000000" stroke="#000000" points="762.0565,-1403.362 771.1072,-1397.8542 760.5972,-1396.5158 762.0565,-1403.362"/>
<text text-anchor="middle" x="675.1482" y="-1427.8" font-family="Times,serif" font-size="14.00" fill="#000000">OTHERS</text>
</g>
<!-- S4 -->
<g id="node23" class="node">
<title>S4</title>
<ellipse fill="none" stroke="#000000" cx="812.6482" cy="-1601" rx="20.2975" ry="20.2975"/>
<text text-anchor="middle" x="812.6482" y="-1597.3" font-family="Times,serif" font-size="14.00" fill="#000000">S4</text>
</g>
<!-- S3&#45;&gt;S4 -->
<g id="edge21" class="edge">
<title>S3&#45;&gt;S4</title>
<path fill="none" stroke="#000000" d="M549.1855,-1458.7395C597.2496,-1484.6924 728.6217,-1555.6287 785.6421,-1586.4176"/>
<polygon fill="#000000" stroke="#000000" points="784.299,-1589.67 794.7611,-1591.3416 787.6249,-1583.5106 784.299,-1589.67"/>
<text text-anchor="middle" x="675.1482" y="-1546.8" font-family="Times,serif" font-size="14.00" fill="#000000">0&#45;9 a&#45;f A&#45;F</text>
</g>
<!-- S5 -->
<g id="node24" class="node">
<title>S5</title>
<ellipse fill="none" stroke="#000000" cx="812.6482" cy="-1489" rx="20.2975" ry="20.2975"/>
<text text-anchor="middle" x="812.6482" y="-1485.3" font-family="Times,serif" font-size="14.00" fill="#000000">S5</text>
</g>
<!-- S3&#45;&gt;S5 -->
<g id="edge22" class="edge">
<title>S3&#45;&gt;S5</title>
<path fill="none" stroke="#000000" d="M551.393,-1451.8767C600.2886,-1458.8246 725.0285,-1476.5496 782.6435,-1484.7364"/>
<polygon fill="#000000" stroke="#000000" points="782.1939,-1488.2076 792.5869,-1486.1494 783.1787,-1481.2773 782.1939,-1488.2076"/>
<text text-anchor="middle" x="675.1482" y="-1476.8" font-family="Times,serif" font-size="14.00" fill="#000000">.</text>
</g>
<!-- S10&#45;&gt;S0 -->
<g id="edge64" class="edge">
<title>S10&#45;&gt;S0</title>
<path fill="none" stroke="#000000" d="M506.5118,-1240.8116C441.9126,-1244.6877 263.2031,-1249.7519 126.6482,-1200 121.4323,-1198.0996 116.2509,-1195.3987 111.3982,-1192.4012"/>
<polygon fill="#000000" stroke="#000000" points="113.33,-1189.4825 103.0817,-1186.7947 109.417,-1195.2867 113.33,-1189.4825"/>
<text text-anchor="middle" x="252.1482" y="-1239.8" font-family="Times,serif" font-size="14.00" fill="#000000">OTHERS</text>
</g>
<!-- S10&#45;&gt;e3 -->
<g id="edge62" class="edge">
<title>S10&#45;&gt;e3:f</title>
<path fill="none" stroke="#000000" d="M555.9999,-1239.2263C760.3693,-1241.2051 2157.7258,-1257.0198 2217.6482,-1320 2248.6938,-1352.6298 2206.7434,-1675.2093 2230.2707,-1741.5382"/>
<polygon fill="#000000" stroke="#000000" points="2227.3642,-1743.5168 2235.2467,-1750.5961 2233.4994,-1740.1464 2227.3642,-1743.5168"/>
<text text-anchor="middle" x="1524.1482" y="-1268.8" font-family="Times,serif" font-size="14.00" fill="#000000">_ a&#45;z A&#45;Z</text>
</g>
<!-- S10&#45;&gt;e7 -->
<g id="edge60" class="edge">
<title>S10&#45;&gt;e7:f</title>
<path fill="none" stroke="#000000" d="M554.4051,-1230.4948C594.2206,-1216.2059 674.9599,-1188.4701 714.4538,-1183.705"/>
<polygon fill="#000000" stroke="#000000" points="714.9136,-1187.1817 724.6482,-1183 714.4305,-1180.1984 714.9136,-1187.1817"/>
<text text-anchor="middle" x="675.1482" y="-1202.8" font-family="Times,serif" font-size="14.00" fill="#000000">8 9</text>
</g>
<!-- S10&#45;&gt;S10 -->
<g id="edge57" class="edge">
<title>S10&#45;&gt;S10</title>
<path fill="none" stroke="#000000" d="M510.0808,-1252.554C497.6883,-1266.3463 504.7107,-1281.6978 531.1482,-1281.6978 552.0091,-1281.6978 560.7817,-1272.1397 557.4662,-1261.3314"/>
<polygon fill="#000000" stroke="#000000" points="560.3528,-1259.339 552.2156,-1252.554 554.3456,-1262.9325 560.3528,-1259.339"/>
<text text-anchor="middle" x="531.1482" y="-1285.4978" font-family="Times,serif" font-size="14.00" fill="#000000">0&#45;7</text>
</g>
<!-- S10&#45;&gt;S12 -->
<g id="edge58" class="edge">
<title>S10&#45;&gt;S12</title>
<path fill="none" stroke="#000000" d="M555.3799,-1233.9035C576.1118,-1228.4909 605.6833,-1218.1439 625.6482,-1200 638.3017,-1188.5006 631.6838,-1178.2147 643.6482,-1166 664.5611,-1144.6496 738.1232,-1107.5323 780.9902,-1086.9044"/>
<polygon fill="#000000" stroke="#000000" points="782.6429,-1089.9938 790.1535,-1082.5211 779.6222,-1083.6791 782.6429,-1089.9938"/>
<text text-anchor="middle" x="675.1482" y="-1169.8" font-family="Times,serif" font-size="14.00" fill="#000000">.</text>
</g>
<!-- S10&#45;&gt;S13 -->
<g id="edge59" class="edge">
<title>S10&#45;&gt;S13</title>
<path fill="none" stroke="#000000" d="M555.8374,-1237.0544C615.2867,-1232.2838 771.0615,-1219.2741 900.6482,-1204 1125.6682,-1177.4773 1395.0203,-1136.2188 1489.424,-1121.4703"/>
<polygon fill="#000000" stroke="#000000" points="1490.2084,-1124.8902 1499.5467,-1119.8856 1489.1257,-1117.9745 1490.2084,-1124.8902"/>
<text text-anchor="middle" x="966.1482" y="-1204.8" font-family="Times,serif" font-size="14.00" fill="#000000">e(E)</text>
</g>
<!-- S12&#45;&gt;S0 -->
<g id="edge75" class="edge">
<title>S12&#45;&gt;S0</title>
<path fill="none" stroke="#000000" d="M787.7349,-1072.5483C754.7684,-1073.2833 694.8436,-1074.6522 643.6482,-1076 445.675,-1081.212 394.863,-1072.1612 198.6482,-1099 166.3496,-1103.4179 154.1425,-1095.4849 126.6482,-1113 116.0926,-1119.7244 107.3269,-1130.1138 100.5733,-1140.2519"/>
<polygon fill="#000000" stroke="#000000" points="97.4471,-1138.6526 95.1619,-1148.9981 103.3998,-1142.3357 97.4471,-1138.6526"/>
<text text-anchor="middle" x="371.1482" y="-1087.8" font-family="Times,serif" font-size="14.00" fill="#000000">OTHERS</text>
</g>
<!-- S12&#45;&gt;e3 -->
<g id="edge73" class="edge">
<title>S12&#45;&gt;e3:f</title>
<path fill="none" stroke="#000000" d="M837.4947,-1070.8964C893.818,-1068.4932 1035.5307,-1063 1154.1482,-1063 1154.1482,-1063 1154.1482,-1063 1742.6482,-1063 1849.1281,-1063 2159.3655,-1036.8871 2217.6482,-1126 2235.5331,-1153.3456 2213.654,-1660.8385 2231.7294,-1741.1315"/>
<polygon fill="#000000" stroke="#000000" points="2228.5372,-1742.5845 2235.3586,-1750.6913 2235.0815,-1740.1001 2228.5372,-1742.5845"/>
<text text-anchor="middle" x="1742.6482" y="-1066.8" font-family="Times,serif" font-size="14.00" fill="#000000">_ a&#45;z A&#45;Z</text>
</g>
<!-- S12&#45;&gt;S12 -->
<g id="edge71" class="edge">
<title>S12&#45;&gt;S12</title>
<path fill="none" stroke="#000000" d="M792.0291,-1086.4363C781.3377,-1099.9926 788.2107,-1114.6978 812.6482,-1114.6978 831.5491,-1114.6978 839.9428,-1105.9011 837.8294,-1095.6429"/>
<polygon fill="#000000" stroke="#000000" points="840.8435,-1093.8426 833.2674,-1086.4363 834.5713,-1096.9506 840.8435,-1093.8426"/>
<text text-anchor="middle" x="812.6482" y="-1118.4978" font-family="Times,serif" font-size="14.00" fill="#000000">0&#45;9</text>
</g>
<!-- S12&#45;&gt;S13 -->
<g id="edge72" class="edge">
<title>S12&#45;&gt;S13</title>
<path fill="none" stroke="#000000" d="M837.5537,-1073.5402C944.5027,-1080.154 1365.0082,-1106.1586 1489.3432,-1113.8476"/>
<polygon fill="#000000" stroke="#000000" points="1489.2479,-1117.3483 1499.4449,-1114.4723 1489.68,-1110.3617 1489.2479,-1117.3483"/>
<text text-anchor="middle" x="1154.1482" y="-1103.8" font-family="Times,serif" font-size="14.00" fill="#000000">e(E)</text>
</g>
<!-- S4&#45;&gt;S0 -->
<g id="edge30" class="edge">
<title>S4&#45;&gt;S0</title>
<path fill="none" stroke="#000000" d="M792.3613,-1603.331C689.3366,-1614.6945 225.1229,-1660.0611 126.6482,-1567 100.5769,-1542.362 89.0768,-1297.4216 85.6567,-1205.5584"/>
<polygon fill="#000000" stroke="#000000" points="89.1482,-1205.2564 85.2881,-1195.3898 82.1528,-1205.5101 89.1482,-1205.2564"/>
<text text-anchor="middle" x="371.1482" y="-1627.8" font-family="Times,serif" font-size="14.00" fill="#000000">OTHERS</text>
</g>
<!-- S4&#45;&gt;e3 -->
<g id="edge28" class="edge">
<title>S4&#45;&gt;e3:f</title>
<path fill="none" stroke="#000000" d="M832.0856,-1606.6669C883.9207,-1621.2612 1029.9649,-1659 1154.1482,-1659 1154.1482,-1659 1154.1482,-1659 2076.1482,-1659 2144.8091,-1659 2166.1043,-1675.6398 2217.6482,-1721 2225.9725,-1728.3256 2224.6969,-1736.5636 2228.1873,-1743.4657"/>
<polygon fill="#000000" stroke="#000000" points="2225.8553,-1746.088 2235.3349,-1750.8196 2230.875,-1741.2092 2225.8553,-1746.088"/>
<text text-anchor="middle" x="1742.6482" y="-1662.8" font-family="Times,serif" font-size="14.00" fill="#000000">_ g&#45;z G&#45;Z</text>
</g>
<!-- S4&#45;&gt;S4 -->
<g id="edge25" class="edge">
<title>S4&#45;&gt;S4</title>
<path fill="none" stroke="#000000" d="M794.7746,-1611.1575C780.3935,-1623.9346 786.3513,-1639.1482 812.6482,-1639.1482 833.6035,-1639.1482 841.6434,-1629.4874 836.7678,-1619.0972"/>
<polygon fill="#000000" stroke="#000000" points="839.4556,-1616.853 830.5219,-1611.1575 833.9539,-1621.181 839.4556,-1616.853"/>
<text text-anchor="middle" x="812.6482" y="-1642.9482" font-family="Times,serif" font-size="14.00" fill="#000000">0&#45;9 a&#45;f A&#45;F</text>
</g>
<!-- S6 -->
<g id="node25" class="node">
<title>S6</title>
<ellipse fill="none" stroke="#000000" cx="1154.1482" cy="-1527" rx="20.2975" ry="20.2975"/>
<text text-anchor="middle" x="1154.1482" y="-1523.3" font-family="Times,serif" font-size="14.00" fill="#000000">S6</text>
</g>
<!-- S4&#45;&gt;S6 -->
<g id="edge26" class="edge">
<title>S4&#45;&gt;S6</title>
<path fill="none" stroke="#000000" d="M832.7197,-1597.8208C869.0036,-1591.9593 947.8537,-1578.6971 1013.6482,-1564 1052.4551,-1555.3314 1096.7448,-1543.3087 1125.0497,-1535.3498"/>
<polygon fill="#000000" stroke="#000000" points="1126.0455,-1538.7056 1134.7149,-1532.6152 1124.1397,-1531.97 1126.0455,-1538.7056"/>
<text text-anchor="middle" x="966.1482" y="-1585.8" font-family="Times,serif" font-size="14.00" fill="#000000">.</text>
</g>
<!-- S7 -->
<g id="node26" class="node">
<title>S7</title>
<ellipse fill="none" stroke="#000000" cx="1524.1482" cy="-1565" rx="20.2975" ry="20.2975"/>
<text text-anchor="middle" x="1524.1482" y="-1561.3" font-family="Times,serif" font-size="14.00" fill="#000000">S7</text>
</g>
<!-- S4&#45;&gt;S7 -->
<g id="edge27" class="edge">
<title>S4&#45;&gt;S7</title>
<path fill="none" stroke="#000000" d="M832.9081,-1601.3052C869.1645,-1601.7832 947.5378,-1602.5074 1013.6482,-1601 1130.6283,-1598.3326 1159.9336,-1597.3161 1276.6482,-1589 1355.1486,-1583.4067 1447.3543,-1573.6091 1493.9385,-1568.4314"/>
<polygon fill="#000000" stroke="#000000" points="1494.4172,-1571.8998 1503.9661,-1567.3097 1493.6389,-1564.9432 1494.4172,-1571.8998"/>
<text text-anchor="middle" x="1154.1482" y="-1603.8" font-family="Times,serif" font-size="14.00" fill="#000000">p(P)</text>
</g>
<!-- S5&#45;&gt;e3 -->
<g id="edge32" class="edge">
<title>S5&#45;&gt;e3:f</title>
<path fill="none" stroke="#000000" d="M832.0759,-1483.0496C870.0498,-1471.6389 956.9401,-1446.6086 1031.6482,-1433 1518.8008,-1344.2619 1661.1146,-1313.9253 2145.6482,-1416 2179.2454,-1423.0778 2197.4414,-1416.2412 2217.6482,-1444 2236.1927,-1469.4752 2214.7025,-1689.0985 2230.7389,-1741.5176"/>
<polygon fill="#000000" stroke="#000000" points="2227.7426,-1743.3501 2235.3593,-1750.7147 2233.9976,-1740.2077 2227.7426,-1743.3501"/>
<text text-anchor="middle" x="1742.6482" y="-1361.8" font-family="Times,serif" font-size="14.00" fill="#000000">_ g&#45;o q&#45;z G&#45;O Q&#45;Z</text>
</g>
<!-- S5&#45;&gt;e4 -->
<g id="edge34" class="edge">
<title>S5&#45;&gt;e4:f</title>
<path fill="none" stroke="#000000" d="M832.922,-1486.0525C854.2212,-1483.0643 888.7191,-1478.5306 918.6482,-1476 951.8206,-1473.1951 987.6866,-1471.0622 1021.186,-1469.4573"/>
<polygon fill="#000000" stroke="#000000" points="1021.6748,-1472.9384 1031.5008,-1468.9761 1021.3485,-1465.946 1021.6748,-1472.9384"/>
<text text-anchor="middle" x="966.1482" y="-1479.8" font-family="Times,serif" font-size="14.00" fill="#000000">OTHERS</text>
</g>
<!-- S5&#45;&gt;S6 -->
<g id="edge31" class="edge">
<title>S5&#45;&gt;S6</title>
<path fill="none" stroke="#000000" d="M832.9879,-1491.2633C890.6425,-1497.6787 1055.3824,-1516.01 1123.7937,-1523.6223"/>
<polygon fill="#000000" stroke="#000000" points="1123.5894,-1527.1211 1133.9151,-1524.7486 1124.3636,-1520.1641 1123.5894,-1527.1211"/>
<text text-anchor="middle" x="966.1482" y="-1513.8" font-family="Times,serif" font-size="14.00" fill="#000000">0&#45;9 a&#45;f A&#45;F</text>
</g>
<!-- S6&#45;&gt;e3 -->
<g id="edge38" class="edge">
<title>S6&#45;&gt;e3:f</title>
<path fill="none" stroke="#000000" d="M1174.6096,-1525.5612C1244.698,-1520.378 1481.3444,-1500.7713 1672.6482,-1460 1736.1832,-1446.4592 1748.3749,-1427.4333 1812.6482,-1418 1858.3805,-1411.2879 1870.6389,-1413.5684 1916.6482,-1418 2054.4327,-1431.2714 2130.5438,-1390.4197 2217.6482,-1498 2250.9077,-1539.0779 2201.3498,-1691.8078 2229.0589,-1742.3463"/>
<polygon fill="#000000" stroke="#000000" points="2226.3868,-1744.6179 2235.1694,-1750.5438 2231.9991,-1740.4344 2226.3868,-1744.6179"/>
<text text-anchor="middle" x="1864.6482" y="-1421.8" font-family="Times,serif" font-size="14.00" fill="#000000">_ g&#45;o q&#45;z G&#45;O Q&#45;Z</text>
</g>
<!-- S6&#45;&gt;e5 -->
<g id="edge40" class="edge">
<title>S6&#45;&gt;e5:f</title>
<path fill="none" stroke="#000000" d="M1174.5601,-1527.721C1201.2438,-1527.5515 1247.9508,-1523.2836 1276.6482,-1498 1293.7437,-1482.9382 1276.5927,-1463.8963 1294.6482,-1450 1301.5734,-1444.6701 1330.4604,-1440.3008 1365.5266,-1436.8567"/>
<polygon fill="#000000" stroke="#000000" points="1365.9406,-1440.3333 1375.5678,-1435.9098 1365.2833,-1433.3642 1365.9406,-1440.3333"/>
<text text-anchor="middle" x="1326.1482" y="-1453.8" font-family="Times,serif" font-size="14.00" fill="#000000">OTHERS</text>
</g>
<!-- S6&#45;&gt;S6 -->
<g id="edge36" class="edge">
<title>S6&#45;&gt;S6</title>
<path fill="none" stroke="#000000" d="M1135.4584,-1534.6773C1112.4769,-1547.8712 1118.7068,-1565.1482 1154.1482,-1565.1482 1184.3288,-1565.1482 1193.3264,-1552.6197 1181.1411,-1540.7527"/>
<polygon fill="#000000" stroke="#000000" points="1182.9751,-1537.7579 1172.838,-1534.6773 1178.8415,-1543.4071 1182.9751,-1537.7579"/>
<text text-anchor="middle" x="1154.1482" y="-1568.9482" font-family="Times,serif" font-size="14.00" fill="#000000">0&#45;9 a&#45;f A&#45;F</text>
</g>
<!-- S6&#45;&gt;S7 -->
<g id="edge37" class="edge">
<title>S6&#45;&gt;S7</title>
<path fill="none" stroke="#000000" d="M1174.3038,-1529.07C1235.6779,-1535.3733 1420.5305,-1554.3582 1493.7783,-1561.8809"/>
<polygon fill="#000000" stroke="#000000" points="1493.4422,-1565.3647 1503.7475,-1562.9048 1494.1575,-1558.4014 1493.4422,-1565.3647"/>
<text text-anchor="middle" x="1326.1482" y="-1550.8" font-family="Times,serif" font-size="14.00" fill="#000000">p(P)</text>
</g>
<!-- S7&#45;&gt;e3 -->
<g id="edge44" class="edge">
<title>S7&#45;&gt;e3:f</title>
<path fill="none" stroke="#000000" d="M1544.4564,-1566.6552C1656.2394,-1575.8517 2192.4435,-1621.1055 2217.6482,-1645 2249.4929,-1675.1893 2207.2464,-1713.3185 2228.3975,-1743.2225"/>
<polygon fill="#000000" stroke="#000000" points="2225.8764,-1745.6517 2235.2245,-1750.6382 2231.0264,-1740.9105 2225.8764,-1745.6517"/>
<text text-anchor="middle" x="1961.6482" y="-1610.8" font-family="Times,serif" font-size="14.00" fill="#000000">_ a&#45;z A&#45;Z</text>
</g>
<!-- S7&#45;&gt;e6 -->
<g id="edge46" class="edge">
<title>S7&#45;&gt;e6:f</title>
<path fill="none" stroke="#000000" d="M1543.7371,-1559.2784C1621.4705,-1536.4894 1904.5682,-1452.6598 1916.6482,-1437 1937.5188,-1409.9447 1925.3769,-1162.8879 1934.6482,-1130 1948.4595,-1081.0075 1972.9624,-1077.4249 1988.6482,-1029 1996.5952,-1004.4664 1981.8913,-922.5128 1997.5368,-901.7918"/>
<polygon fill="#000000" stroke="#000000" points="1999.4267,-904.7524 2006.6482,-897 1996.1684,-898.557 1999.4267,-904.7524"/>
<text text-anchor="middle" x="1864.6482" y="-1479.8" font-family="Times,serif" font-size="14.00" fill="#000000">OTHERS</text>
</g>
<!-- S8 -->
<g id="node27" class="node">
<title>S8</title>
<ellipse fill="none" stroke="#000000" cx="2076.1482" cy="-1540" rx="20.2975" ry="20.2975"/>
<text text-anchor="middle" x="2076.1482" y="-1536.3" font-family="Times,serif" font-size="14.00" fill="#000000">S8</text>
</g>
<!-- S7&#45;&gt;S8 -->
<g id="edge42" class="edge">
<title>S7&#45;&gt;S8</title>
<path fill="none" stroke="#000000" d="M1544.576,-1565.2673C1609.5945,-1565.9293 1817.5107,-1566.5906 1988.6482,-1551 2007.6598,-1549.268 2028.9093,-1546.6137 2045.7065,-1544.3464"/>
<polygon fill="#000000" stroke="#000000" points="2046.6038,-1547.756 2056.0336,-1542.9259 2045.6499,-1540.8213 2046.6038,-1547.756"/>
<text text-anchor="middle" x="1864.6482" y="-1564.8" font-family="Times,serif" font-size="14.00" fill="#000000">0&#45;9</text>
</g>
<!-- S9 -->
<g id="node28" class="node">
<title>S9</title>
<ellipse fill="none" stroke="#000000" cx="1864.6482" cy="-1522" rx="20.2975" ry="20.2975"/>
<text text-anchor="middle" x="1864.6482" y="-1518.3" font-family="Times,serif" font-size="14.00" fill="#000000">S9</text>
</g>
<!-- S7&#45;&gt;S9 -->
<g id="edge43" class="edge">
<title>S7&#45;&gt;S9</title>
<path fill="none" stroke="#000000" d="M1544.4283,-1562.4389C1601.9141,-1555.1793 1766.1716,-1534.4361 1834.3826,-1525.8221"/>
<polygon fill="#000000" stroke="#000000" points="1834.9917,-1529.2731 1844.4744,-1524.5477 1834.1146,-1522.3282 1834.9917,-1529.2731"/>
<text text-anchor="middle" x="1742.6482" y="-1546.8" font-family="Times,serif" font-size="14.00" fill="#000000">&#45; +</text>
</g>
<!-- S8&#45;&gt;S0 -->
<g id="edge51" class="edge">
<title>S8&#45;&gt;S0</title>
<path fill="none" stroke="#000000" d="M2064.8529,-1557.1006C2036.4644,-1597.7916 1957.7082,-1697 1864.6482,-1697 252.1482,-1697 252.1482,-1697 252.1482,-1697 180.2714,-1697 160.71,-1658.2935 126.6482,-1595 108.3574,-1561.012 91.8763,-1300.6311 86.4112,-1205.5854"/>
<polygon fill="#000000" stroke="#000000" points="89.8916,-1205.1404 85.8289,-1195.3555 82.9029,-1205.5383 89.8916,-1205.1404"/>
<text text-anchor="middle" x="966.1482" y="-1700.8" font-family="Times,serif" font-size="14.00" fill="#000000">OTHERS</text>
</g>
<!-- S8&#45;&gt;e3 -->
<g id="edge49" class="edge">
<title>S8&#45;&gt;e3:f</title>
<path fill="none" stroke="#000000" d="M2096.3731,-1541.0381C2127.8196,-1543.8318 2187.9069,-1554.1246 2217.6482,-1592 2237.558,-1617.355 2214.3641,-1707.9529 2229.6198,-1742.3063"/>
<polygon fill="#000000" stroke="#000000" points="2226.8227,-1744.4173 2235.34,-1750.7186 2232.6113,-1740.4812 2226.8227,-1744.4173"/>
<text text-anchor="middle" x="2190.6482" y="-1595.8" font-family="Times,serif" font-size="14.00" fill="#000000">_ a&#45;z A&#45;Z</text>
</g>
<!-- S8&#45;&gt;S8 -->
<g id="edge48" class="edge">
<title>S8&#45;&gt;S8</title>
<path fill="none" stroke="#000000" d="M2059.4699,-1552.1098C2049.6591,-1564.4325 2055.2185,-1578.1482 2076.1482,-1578.1482 2092.009,-1578.1482 2099.043,-1570.2715 2097.2501,-1561.0935"/>
<polygon fill="#000000" stroke="#000000" points="2100.3841,-1559.535 2092.8266,-1552.1098 2094.1041,-1562.6273 2100.3841,-1559.535"/>
<text text-anchor="middle" x="2076.1482" y="-1581.9482" font-family="Times,serif" font-size="14.00" fill="#000000">0&#45;9</text>
</g>
<!-- S9&#45;&gt;e3 -->
<g id="edge53" class="edge">
<title>S9&#45;&gt;e3:f</title>
<path fill="none" stroke="#000000" d="M1883.6973,-1514.9678C1930.0036,-1498.9841 2051.5754,-1463.7229 2145.6482,-1496 2183.9935,-1509.1566 2198.2132,-1516.4228 2217.6482,-1552 2237.3198,-1588.0103 2208.0111,-1701.831 2229.3194,-1742.5349"/>
<polygon fill="#000000" stroke="#000000" points="2226.5307,-1744.6507 2235.2672,-1750.6445 2232.1753,-1740.5108 2226.5307,-1744.6507"/>
<text text-anchor="middle" x="2076.1482" y="-1499.8" font-family="Times,serif" font-size="14.00" fill="#000000">_ a&#45;z A&#45;Z</text>
</g>
<!-- S9&#45;&gt;e6 -->
<g id="edge55" class="edge">
<title>S9&#45;&gt;e6:f</title>
<path fill="none" stroke="#000000" d="M1883.2833,-1513.7117C1894.3633,-1507.9335 1907.9156,-1499.2453 1916.6482,-1488 1947.0353,-1448.8695 1978.179,-1325.4248 1988.6482,-1277 2006.1048,-1196.255 1987.8896,-1172.4525 2006.6482,-1092 2025.6841,-1010.3584 2072.1255,-996.4802 2075.9031,-918.3833"/>
<polygon fill="#000000" stroke="#000000" points="2079.4112,-918.0798 2076.1482,-908 2072.4131,-917.9146 2079.4112,-918.0798"/>
<text text-anchor="middle" x="1961.6482" y="-1458.8" font-family="Times,serif" font-size="14.00" fill="#000000">OTHERS</text>
</g>
<!-- S9&#45;&gt;S8 -->
<g id="edge52" class="edge">
<title>S9&#45;&gt;S8</title>
<path fill="none" stroke="#000000" d="M1884.9277,-1523.7259C1922.2747,-1526.9044 2002.1016,-1533.6982 2045.8803,-1537.424"/>
<polygon fill="#000000" stroke="#000000" points="2045.6693,-1540.9186 2055.9301,-1538.2793 2046.263,-1533.9438 2045.6693,-1540.9186"/>
<text text-anchor="middle" x="1961.6482" y="-1535.8" font-family="Times,serif" font-size="14.00" fill="#000000">0&#45;9</text>
</g>
<!-- S13&#45;&gt;e3 -->
<g id="edge78" class="edge">
<title>S13&#45;&gt;e3:f</title>
<path fill="none" stroke="#000000" d="M1547.9644,-1123.8632C1610.6604,-1144.3401 1785.7073,-1200.0741 1934.6482,-1234 1996.8422,-1248.1666 2175.5606,-1234.0686 2217.6482,-1282 2250.1154,-1318.9751 2203.8842,-1671.5365 2230.129,-1741.59"/>
<polygon fill="#000000" stroke="#000000" points="2227.2367,-1743.5853 2235.2121,-1750.5599 2233.3268,-1740.1341 2227.2367,-1743.5853"/>
<text text-anchor="middle" x="1961.6482" y="-1243.8" font-family="Times,serif" font-size="14.00" fill="#000000">_ a&#45;z A&#45;Z</text>
</g>
<!-- S13&#45;&gt;e6 -->
<g id="edge80" class="edge">
<title>S13&#45;&gt;e6:f</title>
<path fill="none" stroke="#000000" d="M1546.6426,-1105.5191C1578.519,-1090.7466 1638.7373,-1063.1328 1690.6482,-1041 1821.9881,-985.0017 1875.4222,-1007.9819 1988.6482,-921 1995.2567,-915.9233 1995.4275,-907.8175 1997.8815,-902.452"/>
<polygon fill="#000000" stroke="#000000" points="2000.0048,-905.2532 2006.6482,-897 1996.308,-899.3089 2000.0048,-905.2532"/>
<text text-anchor="middle" x="1864.6482" y="-1004.8" font-family="Times,serif" font-size="14.00" fill="#000000">OTHERS</text>
</g>
<!-- S14 -->
<g id="node30" class="node">
<title>S14</title>
<ellipse fill="none" stroke="#000000" cx="2076.1482" cy="-1172" rx="24.8972" ry="24.8972"/>
<text text-anchor="middle" x="2076.1482" y="-1168.3" font-family="Times,serif" font-size="14.00" fill="#000000">S14</text>
</g>
<!-- S13&#45;&gt;S14 -->
<g id="edge76" class="edge">
<title>S13&#45;&gt;S14</title>
<path fill="none" stroke="#000000" d="M1549.087,-1119.3692C1613.0343,-1127.8964 1788.1245,-1150.5394 1934.6482,-1163 1970.8597,-1166.0795 2012.3665,-1168.6004 2041.0171,-1170.1828"/>
<polygon fill="#000000" stroke="#000000" points="2041.1553,-1173.6953 2051.3303,-1170.7425 2041.5347,-1166.7056 2041.1553,-1173.6953"/>
<text text-anchor="middle" x="1864.6482" y="-1164.8" font-family="Times,serif" font-size="14.00" fill="#000000">0&#45;9</text>
</g>
<!-- S15 -->
<g id="node31" class="node">
<title>S15</title>
<ellipse fill="none" stroke="#000000" cx="1864.6482" cy="-1116" rx="24.8972" ry="24.8972"/>
<text text-anchor="middle" x="1864.6482" y="-1112.3" font-family="Times,serif" font-size="14.00" fill="#000000">S15</text>
</g>
<!-- S13&#45;&gt;S15 -->
<g id="edge77" class="edge">
<title>S13&#45;&gt;S15</title>
<path fill="none" stroke="#000000" d="M1548.9104,-1116C1608.4693,-1116 1759.9109,-1116 1829.1403,-1116"/>
<polygon fill="#000000" stroke="#000000" points="1829.5187,-1119.5001 1839.5186,-1116 1829.5186,-1112.5001 1829.5187,-1119.5001"/>
<text text-anchor="middle" x="1742.6482" y="-1119.8" font-family="Times,serif" font-size="14.00" fill="#000000">+ &#45;</text>
</g>
<!-- S14&#45;&gt;S0 -->
<g id="edge85" class="edge">
<title>S14&#45;&gt;S0</title>
<path fill="none" stroke="#000000" d="M2052.368,-1180.0764C1990.5483,-1200.7472 1819.3837,-1255.911 1672.6482,-1284 1377.9718,-1340.4087 623.3316,-1353.3518 323.6482,-1339 263.5857,-1336.1236 129.1497,-1322.09 126.6482,-1320 109.0834,-1305.3245 96.2373,-1244.2474 89.6039,-1204.9916"/>
<polygon fill="#000000" stroke="#000000" points="93.0444,-1204.3428 87.9755,-1195.0392 86.1362,-1205.4732 93.0444,-1204.3428"/>
<text text-anchor="middle" x="966.1482" y="-1343.8" font-family="Times,serif" font-size="14.00" fill="#000000">OTHERS</text>
</g>
<!-- S14&#45;&gt;e3 -->
<g id="edge83" class="edge">
<title>S14&#45;&gt;e3:f</title>
<path fill="none" stroke="#000000" d="M2100.8508,-1174.001C2133.7272,-1178.128 2190.8252,-1190.717 2217.6482,-1229 2249.2616,-1274.1201 2199.4606,-1667.6597 2230.0383,-1741.9349"/>
<polygon fill="#000000" stroke="#000000" points="2227.2183,-1744.0337 2235.4048,-1750.7592 2233.1992,-1740.3965 2227.2183,-1744.0337"/>
<text text-anchor="middle" x="2190.6482" y="-1232.8" font-family="Times,serif" font-size="14.00" fill="#000000">_ a&#45;z A&#45;Z</text>
</g>
<!-- S14&#45;&gt;S14 -->
<g id="edge82" class="edge">
<title>S14&#45;&gt;S14</title>
<path fill="none" stroke="#000000" d="M2057.5338,-1188.6542C2050.5723,-1201.5476 2056.7771,-1214.6978 2076.1482,-1214.6978 2090.5252,-1214.6978 2097.6496,-1207.4541 2097.5215,-1198.4479"/>
<polygon fill="#000000" stroke="#000000" points="2100.8431,-1197.3306 2094.7626,-1188.6542 2094.1053,-1199.2286 2100.8431,-1197.3306"/>
<text text-anchor="middle" x="2076.1482" y="-1218.4978" font-family="Times,serif" font-size="14.00" fill="#000000">0&#45;9</text>
</g>
<!-- S15&#45;&gt;e3 -->
<g id="edge87" class="edge">
<title>S15&#45;&gt;e3:f</title>
<path fill="none" stroke="#000000" d="M1888.8074,-1110.5814C1958.9843,-1096.4125 2161.4034,-1067.1174 2217.6482,-1186 2230.2164,-1212.565 2215.2716,-1665.043 2231.7851,-1740.9519"/>
<polygon fill="#000000" stroke="#000000" points="2228.6434,-1742.5488 2235.3857,-1750.7214 2235.2115,-1740.128 2228.6434,-1742.5488"/>
<text text-anchor="middle" x="2076.1482" y="-1121.8" font-family="Times,serif" font-size="14.00" fill="#000000">_ a&#45;z A&#45;Z</text>
</g>
<!-- S15&#45;&gt;e6 -->
<g id="edge89" class="edge">
<title>S15&#45;&gt;e6:f</title>
<path fill="none" stroke="#000000" d="M1875.359,-1093.3348C1887.1033,-1070.5999 1907.8918,-1035.9036 1934.6482,-1014 1954.8334,-997.4758 1972.2723,-1011.3058 1988.6482,-991 2012.7434,-961.1225 1973.3758,-908.6275 1996.7093,-898.6595"/>
<polygon fill="#000000" stroke="#000000" points="1997.3612,-902.0992 2006.6482,-897 1996.2083,-895.1947 1997.3612,-902.0992"/>
<text text-anchor="middle" x="1961.6482" y="-1017.8" font-family="Times,serif" font-size="14.00" fill="#000000">OTHERS</text>
</g>
<!-- S15&#45;&gt;S14 -->
<g id="edge86" class="edge">
<title>S15&#45;&gt;S14</title>
<path fill="none" stroke="#000000" d="M1888.9122,-1122.146C1913.9304,-1128.5102 1954.0572,-1138.7933 1988.6482,-1148 2006.2547,-1152.6861 2025.8133,-1158.037 2041.966,-1162.4953"/>
<polygon fill="#000000" stroke="#000000" points="2041.4628,-1165.9875 2052.034,-1165.2802 2043.329,-1159.2408 2041.4628,-1165.9875"/>
<text text-anchor="middle" x="1961.6482" y="-1151.8" font-family="Times,serif" font-size="14.00" fill="#000000">0&#45;9</text>
</g>
<!-- S19&#45;&gt;S0 -->
<g id="edge97" class="edge">
<title>S19&#45;&gt;S0</title>
<path fill="none" stroke="#000000" d="M507.8394,-666.4172C451.9519,-647.271 306.9256,-606.15 198.6482,-651 156.8382,-668.3183 145.9077,-682.0479 126.6482,-723 109.1657,-760.1735 91.9585,-1038.6918 86.376,-1136.8705"/>
<polygon fill="#000000" stroke="#000000" points="82.8811,-1136.6828 85.8126,-1146.8639 89.87,-1137.0768 82.8811,-1136.6828"/>
<text text-anchor="middle" x="252.1482" y="-654.8" font-family="Times,serif" font-size="14.00" fill="#000000">/</text>
</g>
<!-- S19&#45;&gt;S18 -->
<g id="edge98" class="edge">
<title>S19&#45;&gt;S18</title>
<path fill="none" stroke="#000000" d="M506.643,-679.1143C483.903,-682.7824 449.0807,-688.0192 418.6482,-691 373.4134,-695.4307 321.0354,-697.812 287.2915,-698.9911"/>
<polygon fill="#000000" stroke="#000000" points="286.9011,-695.502 277.0231,-699.3327 287.134,-702.4982 286.9011,-695.502"/>
<text text-anchor="middle" x="371.1482" y="-700.8" font-family="Times,serif" font-size="14.00" fill="#000000">OTHERS</text>
</g>
<!-- S21&#45;&gt;S0 -->
<g id="edge101" class="edge">
<title>S21&#45;&gt;S0</title>
<path fill="none" stroke="#000000" d="M506.8136,-554.4319C427.5302,-540.1787 178.7686,-500.6247 126.6482,-555 106.3994,-576.1248 90.0256,-1009.4849 85.651,-1136.3791"/>
<polygon fill="#000000" stroke="#000000" points="82.1428,-1136.5618 85.2993,-1146.6755 89.1387,-1136.8009 82.1428,-1136.5618"/>
</g>
<!-- S23&#45;&gt;e8 -->
<g id="edge106" class="edge">
<title>S23&#45;&gt;e8:f</title>
<path fill="none" stroke="#000000" d="M554.9833,-192.3071C603.1621,-206.409 715.7973,-236 812.6482,-236 812.6482,-236 812.6482,-236 1524.1482,-236 1645.0594,-236 1693.2468,-199.1422 1794.6482,-265 1812.4896,-276.5876 1803.0515,-303.2728 1813.8697,-312.1035"/>
<polygon fill="#000000" stroke="#000000" points="1813.0659,-315.5157 1823.6482,-315 1815.0541,-308.8039 1813.0659,-315.5157"/>
<text text-anchor="middle" x="1154.1482" y="-239.8" font-family="Times,serif" font-size="14.00" fill="#000000">OTHERS</text>
</g>
<!-- S23&#45;&gt;S24 -->
<g id="edge104" class="edge">
<title>S23&#45;&gt;S24</title>
<path fill="none" stroke="#000000" d="M555.536,-180.1776C592.18,-172.9963 663.6538,-159.2403 724.6482,-149 860.7116,-126.1566 894.2851,-115.9011 1031.6482,-103 1202.6607,-86.9385 1408.2997,-84.3833 1489.113,-84.0285"/>
<polygon fill="#000000" stroke="#000000" points="1489.2412,-87.5282 1499.2288,-83.993 1489.2165,-80.5283 1489.2412,-87.5282"/>
<text text-anchor="middle" x="966.1482" y="-119.8" font-family="Times,serif" font-size="14.00" fill="#000000">a b f n r t v \ &#39; &quot; ?</text>
</g>
<!-- S25 -->
<g id="node36" class="node">
<title>S25</title>
<ellipse fill="none" stroke="#000000" cx="812.6482" cy="-183" rx="24.8972" ry="24.8972"/>
<text text-anchor="middle" x="812.6482" y="-179.3" font-family="Times,serif" font-size="14.00" fill="#000000">S25</text>
</g>
<!-- S23&#45;&gt;S25 -->
<g id="edge105" class="edge">
<title>S23&#45;&gt;S25</title>
<path fill="none" stroke="#000000" d="M556.1295,-184.8225C606.4189,-184.4652 719.973,-183.6584 777.6346,-183.2488"/>
<polygon fill="#000000" stroke="#000000" points="777.7481,-186.7481 787.723,-183.1771 777.6983,-179.7483 777.7481,-186.7481"/>
<text text-anchor="middle" x="675.1482" y="-188.8" font-family="Times,serif" font-size="14.00" fill="#000000">x(X)</text>
</g>
<!-- S24&#45;&gt;S0 -->
<g id="edge108" class="edge">
<title>S24&#45;&gt;S0</title>
<path fill="none" stroke="#000000" d="M1500.7602,-74.8506C1442.9317,-53.0797 1288.1951,0 1154.1482,0 252.1482,0 252.1482,0 252.1482,0 177.9776,0 158.6032,-43.066 126.6482,-110 104.0526,-157.3297 88.3195,-959.153 85.1068,-1136.4722"/>
<polygon fill="#000000" stroke="#000000" points="81.6061,-1136.4843 84.9256,-1146.5457 88.605,-1136.6102 81.6061,-1136.4843"/>
<text text-anchor="middle" x="675.1482" y="-3.8" font-family="Times,serif" font-size="14.00" fill="#000000">&#39;</text>
</g>
<!-- S24&#45;&gt;e8 -->
<g id="edge109" class="edge">
<title>S24&#45;&gt;e8:f</title>
<path fill="none" stroke="#000000" d="M1548.3976,-78.5058C1601.2248,-68.1112 1727.3467,-52.1051 1794.6482,-118 1823.5489,-146.2966 1786.8743,-287.459 1814.1512,-311.5123"/>
<polygon fill="#000000" stroke="#000000" points="1813.0546,-314.8381 1823.6482,-315 1815.4678,-308.2672 1813.0546,-314.8381"/>
<text text-anchor="middle" x="1742.6482" y="-121.8" font-family="Times,serif" font-size="14.00" fill="#000000">OTHERS</text>
</g>
<!-- S25&#45;&gt;e8 -->
<g id="edge112" class="edge">
<title>S25&#45;&gt;e8:f</title>
<path fill="none" stroke="#000000" d="M837.6149,-182.3031C982.9934,-178.4647 1716.6223,-162.1769 1794.6482,-222 1825.7865,-245.874 1788.7453,-302.8563 1813.7515,-313.3306"/>
<polygon fill="#000000" stroke="#000000" points="1813.2053,-316.7878 1823.6482,-315 1814.3697,-309.8854 1813.2053,-316.7878"/>
<text text-anchor="middle" x="1326.1482" y="-182.8" font-family="Times,serif" font-size="14.00" fill="#000000">OTHERS</text>
</g>
<!-- S26 -->
<g id="node37" class="node">
<title>S26</title>
<ellipse fill="none" stroke="#000000" cx="1154.1482" cy="-137" rx="24.8972" ry="24.8972"/>
<text text-anchor="middle" x="1154.1482" y="-133.3" font-family="Times,serif" font-size="14.00" fill="#000000">S26</text>
</g>
<!-- S25&#45;&gt;S26 -->
<g id="edge111" class="edge">
<title>S25&#45;&gt;S26</title>
<path fill="none" stroke="#000000" d="M836.9374,-177.2146C858.3388,-172.2957 890.414,-165.3568 918.6482,-161 989.489,-150.0687 1073.115,-142.8922 1119.2223,-139.4283"/>
<polygon fill="#000000" stroke="#000000" points="1119.5744,-142.912 1129.2901,-138.6864 1119.0599,-135.9309 1119.5744,-142.912"/>
<text text-anchor="middle" x="966.1482" y="-164.8" font-family="Times,serif" font-size="14.00" fill="#000000">0&#45;9 a&#45;f A&#45;F</text>
</g>
<!-- S26&#45;&gt;S0 -->
<g id="edge115" class="edge">
<title>S26&#45;&gt;S0</title>
<path fill="none" stroke="#000000" d="M1130.2783,-129.9235C1102.5195,-121.999 1055.1905,-109.4266 1013.6482,-103 925.1512,-89.3094 902.198,-89 812.6482,-89 252.1482,-89 252.1482,-89 252.1482,-89 176.4944,-89 158.6183,-135.4331 126.6482,-204 106.5741,-247.0533 89.0747,-968.6794 85.2667,-1136.38"/>
<polygon fill="#000000" stroke="#000000" points="81.7674,-1136.3168 85.0407,-1146.3933 88.7656,-1136.4748 81.7674,-1136.3168"/>
<text text-anchor="middle" x="531.1482" y="-92.8" font-family="Times,serif" font-size="14.00" fill="#000000">&#39;</text>
</g>
<!-- S26&#45;&gt;e8 -->
<g id="edge116" class="edge">
<title>S26&#45;&gt;e8:f</title>
<path fill="none" stroke="#000000" d="M1179.1395,-136.6996C1291.7688,-135.5853 1748.6838,-133.7153 1794.6482,-176 1838.1899,-216.0559 1770.1132,-303.175 1813.4329,-313.9084"/>
<polygon fill="#000000" stroke="#000000" points="1813.3329,-317.4175 1823.6482,-315 1814.0768,-310.4572 1813.3329,-317.4175"/>
<text text-anchor="middle" x="1524.1482" y="-153.8" font-family="Times,serif" font-size="14.00" fill="#000000">OTHERS</text>
</g>
<!-- S26&#45;&gt;S24 -->
<g id="edge114" class="edge">
<title>S26&#45;&gt;S24</title>
<path fill="none" stroke="#000000" d="M1178.7115,-133.4815C1242.7074,-124.3145 1414.749,-99.6707 1489.1126,-89.0186"/>
<polygon fill="#000000" stroke="#000000" points="1489.9484,-92.4347 1499.3511,-87.552 1488.9558,-85.5054 1489.9484,-92.4347"/>
<text text-anchor="middle" x="1326.1482" y="-120.8" font-family="Times,serif" font-size="14.00" fill="#000000">0&#45;9 a&#45;f A&#45;F</text>
</g>
<!-- S28&#45;&gt;e8 -->
<g id="edge124" class="edge">
<title>S28&#45;&gt;e8:f</title>
<path fill="none" stroke="#000000" d="M555.4891,-463.7653C604.1111,-453.7808 716.8189,-433 812.6482,-433 812.6482,-433 812.6482,-433 1524.1482,-433 1648.111,-433 1695.6454,-439.6003 1794.6482,-365 1811.6388,-352.1973 1802.759,-326.3095 1813.7943,-317.7888"/>
<polygon fill="#000000" stroke="#000000" points="1814.9793,-321.091 1823.6482,-315 1813.073,-314.3555 1814.9793,-321.091"/>
<text text-anchor="middle" x="1154.1482" y="-436.8" font-family="Times,serif" font-size="14.00" fill="#000000">OTHERS</text>
</g>
<!-- S28&#45;&gt;S27 -->
<g id="edge123" class="edge">
<title>S28&#45;&gt;S27</title>
<path fill="none" stroke="#000000" d="M506.8119,-473.7589C467.6632,-480.5411 388.5197,-490.6386 323.6482,-476 309.3309,-472.7692 294.5176,-466.3182 282.1131,-459.8954"/>
<polygon fill="#000000" stroke="#000000" points="283.6057,-456.7236 273.145,-455.0432 280.2746,-462.8802 283.6057,-456.7236"/>
<text text-anchor="middle" x="371.1482" y="-486.8" font-family="Times,serif" font-size="14.00" fill="#000000">a b f n r t v \ &#39; &quot; ?</text>
</g>
</g>
</svg>
